<svg width="29" height="28" viewBox="0 0 29 28" fill="none" xmlns="http://www.w3.org/2000/svg">
<path d="M22.975 4C24.6456 4 26 5.35437 26 7.025V10.875C26 11.0938 25.9131 11.3036 25.7584 11.4584C25.6036 11.6131 25.3938 11.7 25.175 11.7C24.6645 11.7 24.1748 11.9028 23.8138 12.2638C23.4528 12.6248 23.25 13.1145 23.25 13.625C23.25 14.1355 23.4528 14.6252 23.8138 14.9862C24.1748 15.3472 24.6645 15.55 25.175 15.55C25.3938 15.55 25.6036 15.6369 25.7584 15.7916C25.9131 15.9464 26 16.1562 26 16.375V20.225C26 21.8956 24.6456 23.25 22.975 23.25H7.025C5.35438 23.25 4 21.8956 4 20.225V16.375C4 16.1562 4.08692 15.9464 4.24164 15.7916C4.39635 15.6369 4.6062 15.55 4.825 15.55C5.33554 15.55 5.82517 15.3472 6.18618 14.9862C6.54719 14.6252 6.75 14.1355 6.75 13.625C6.75 13.1145 6.54719 12.6248 6.18618 12.2638C5.82517 11.9028 5.33554 11.7 4.825 11.7C4.6062 11.7 4.39635 11.6131 4.24164 11.4584C4.08692 11.3036 4 11.0938 4 10.875V7.025C4 5.35437 5.35438 4 7.025 4H22.975ZM12.8492 8.93267C12.705 8.78028 12.5081 8.68857 12.2986 8.67621C12.0892 8.66384 11.8829 8.73176 11.7217 8.86612L11.6827 8.90077C11.5303 9.04501 11.4386 9.24189 11.4262 9.45135C11.4138 9.66081 11.4818 9.86712 11.6161 10.0283L13.4677 12.25H12.25L12.2016 12.2514C11.9915 12.2637 11.7941 12.3559 11.6498 12.509C11.5054 12.6621 11.425 12.8646 11.425 13.075L11.4264 13.1234C11.4387 13.3335 11.5309 13.5309 11.684 13.6752C11.8371 13.8196 12.0396 13.9 12.25 13.9H14.3125V15H12.25L12.2016 15.0014C11.9915 15.0137 11.7941 15.1059 11.6498 15.259C11.5054 15.4121 11.425 15.6146 11.425 15.825L11.4264 15.8734C11.4387 16.0835 11.5309 16.2809 11.684 16.4252C11.8371 16.5696 12.0396 16.65 12.25 16.65H14.3125V17.75L14.3139 17.7984C14.3262 18.0085 14.4184 18.2059 14.5715 18.3502C14.7246 18.4946 14.9271 18.575 15.1375 18.575L15.1859 18.5736C15.396 18.5613 15.5934 18.4691 15.7377 18.316C15.8821 18.1629 15.9625 17.9604 15.9625 17.75V16.65H17.75L17.7984 16.6486C18.0085 16.6363 18.2059 16.5441 18.3502 16.391C18.4946 16.2379 18.575 16.0354 18.575 15.825L18.5736 15.7766C18.5613 15.5665 18.4691 15.3691 18.316 15.2248C18.1629 15.0804 17.9604 15 17.75 15H15.9625V13.9H17.75L17.7984 13.8986C18.0085 13.8863 18.2059 13.7941 18.3502 13.641C18.4946 13.4879 18.575 13.2854 18.575 13.075L18.5736 13.0266C18.5613 12.8165 18.4691 12.6191 18.316 12.4748C18.1629 12.3304 17.9604 12.25 17.75 12.25H16.5317L18.3839 10.028L18.4161 9.98702C18.544 9.81413 18.5993 9.59811 18.5703 9.38501C18.5412 9.17191 18.4301 8.97857 18.2606 8.84619C18.0911 8.7138 17.8766 8.65284 17.6629 8.67629C17.4491 8.69974 17.2529 8.80575 17.1161 8.97172L15 11.5113L12.8839 8.97172L12.8492 8.93267Z" fill="url(#paint0_linear_2973_12796)"/>
<defs>
<linearGradient id="paint0_linear_2973_12796" x1="20.7517" y1="-8.18246" x2="-1.96157" y2="17.3456" gradientUnits="userSpaceOnUse">
<stop offset="0.000950169" stop-color="#AEBEFF"/>
<stop offset="1" stop-color="#356FE7"/>
</linearGradient>
</defs>
</svg>
