<svg width="41" height="40" viewBox="0 0 41 40" fill="none" xmlns="http://www.w3.org/2000/svg">
<circle cx="20.5" cy="20" r="20" fill="#89A0FF" fill-opacity="0.2"/>
<path d="M28.4079 12.7029C28.3044 12.6819 28.2113 12.6259 28.1444 12.5442C28.0775 12.4625 28.0409 12.3602 28.0408 12.2546V10.8329C28.0408 9.82087 27.2199 9 26.2079 9H14.75C14.0207 9 13.3212 9.28973 12.8055 9.80546C12.2897 10.3212 12 11.0207 12 11.75V28.25C12 28.9793 12.2897 29.6788 12.8055 30.1945C13.3212 30.7103 14.0207 31 14.75 31H28.0408C29.0541 31 29.875 30.1791 29.875 29.1671V14.5C29.875 13.6283 29.2618 12.8775 28.4079 12.7029ZM25.75 21.1853C25.7497 21.2304 25.7361 21.2744 25.7109 21.3118C25.6858 21.3492 25.6501 21.3784 25.6085 21.3957C25.5668 21.413 25.521 21.4177 25.4767 21.4091C25.4325 21.4005 25.3917 21.3791 25.3595 21.3475L23.6174 19.6054C23.5741 19.5627 23.5159 19.5388 23.4551 19.5388C23.3944 19.5388 23.3361 19.5627 23.2929 19.6054L21.5508 21.3475C21.5186 21.3791 21.4778 21.4005 21.4335 21.4091C21.3892 21.4177 21.3434 21.413 21.3018 21.3957C21.2601 21.3784 21.2245 21.3492 21.1993 21.3118C21.1742 21.2744 21.1606 21.2304 21.1603 21.1853V14.2704C21.1603 14.1439 21.2634 14.0421 21.3899 14.0421H25.5204C25.6469 14.0421 25.75 14.1439 25.75 14.2704V21.1853ZM26.2079 12.4375C26.2079 12.4984 26.1837 12.5568 26.1406 12.5999C26.0976 12.6429 26.0392 12.6671 25.9783 12.6671H14.75C14.5068 12.6671 14.2735 12.5705 14.1015 12.3985C13.9295 12.2265 13.8329 11.9932 13.8329 11.75C13.8329 11.5068 13.9295 11.2735 14.1015 11.1015C14.2735 10.9295 14.5068 10.8329 14.75 10.8329H25.9783C26.1048 10.8329 26.2079 10.936 26.2079 11.0625V12.4375Z" fill="url(#paint0_linear_357_5591)"/>
<defs>
<linearGradient id="paint0_linear_357_5591" x1="25.6107" y1="-4.92281" x2="0.119549" y2="15.4458" gradientUnits="userSpaceOnUse">
<stop offset="0.000950169" stop-color="#AEBEFF"/>
<stop offset="1" stop-color="#356FE7"/>
</linearGradient>
</defs>
</svg>
