<svg width="29" height="28" viewBox="0 0 29 28" fill="none" xmlns="http://www.w3.org/2000/svg">
<path d="M18.8575 6.82555C19.5946 6.82555 20.1941 6.25553 20.1941 5.55037V4.27518C20.1941 3.57002 19.5946 3 18.8575 3C18.1179 3 17.5209 3.57002 17.5209 4.27518V5.55037C17.5209 6.25553 18.1204 6.82555 18.8575 6.82555ZM10.2604 6.82555C10.9975 6.82555 11.5971 6.25553 11.5971 5.55037V4.27518C11.5971 3.57002 10.9975 3 10.2604 3C9.52088 3 8.92383 3.57002 8.92383 4.27518V5.55037C8.92383 6.25553 9.52088 6.82555 10.2604 6.82555Z" fill="url(#paint0_linear_2973_12790)"/>
<path d="M21.0713 5.01966V5.80344C21.0713 6.79115 20.0737 7.59459 18.8452 7.59459C17.6143 7.59459 16.6167 6.79361 16.6167 5.80344V4.90909H12.4693V5.80344C12.4693 6.79115 11.4717 7.59459 10.2432 7.59459C9.01229 7.59459 8.01474 6.79361 8.01474 5.80344V5.0344C6.84767 5.39558 6 6.48649 6 7.77887V22.1302C6 23.715 7.27764 25 8.85504 25H20.2801C21.8575 25 23.1351 23.715 23.1351 22.1302V7.77887C23.1376 6.46929 22.2654 5.36364 21.0713 5.01966ZM20.0123 21.4521H9.12776C8.67568 21.4521 8.31204 21.0737 8.31204 20.6044C8.31204 20.1376 8.67813 19.7568 9.12776 19.7568H20.0147C20.4668 19.7568 20.8305 20.1351 20.8305 20.6044C20.8305 21.0737 20.4644 21.4521 20.0123 21.4521ZM20.0123 16.9558H9.12776C8.67568 16.9558 8.31204 16.5774 8.31204 16.1081C8.31204 15.6413 8.67813 15.2604 9.12776 15.2604H20.0147C20.4668 15.2604 20.8305 15.6388 20.8305 16.1081C20.8305 16.5774 20.4644 16.9558 20.0123 16.9558ZM20.0123 12.4595H9.12776C8.67568 12.4595 8.31204 12.0811 8.31204 11.6118C8.31204 11.145 8.67813 10.7641 9.12776 10.7641H20.0147C20.4668 10.7641 20.8305 11.1425 20.8305 11.6118C20.8305 12.0811 20.4644 12.4595 20.0123 12.4595Z" fill="url(#paint1_linear_2973_12790)"/>
<defs>
<linearGradient id="paint0_linear_2973_12790" x1="19.0474" y1="-10.9228" x2="-6.18583" y2="8.40508" gradientUnits="userSpaceOnUse">
<stop offset="0.000950169" stop-color="#AEBEFF"/>
<stop offset="1" stop-color="#356FE7"/>
</linearGradient>
<linearGradient id="paint1_linear_2973_12790" x1="19.0474" y1="-10.9228" x2="-6.18583" y2="8.40508" gradientUnits="userSpaceOnUse">
<stop offset="0.000950169" stop-color="#AEBEFF"/>
<stop offset="1" stop-color="#356FE7"/>
</linearGradient>
</defs>
</svg>
