<svg width="29" height="28" viewBox="0 0 29 28" fill="none" xmlns="http://www.w3.org/2000/svg">
<path d="M17.8044 10.8001C17.4661 10.5265 16.9339 10.3897 16.2026 10.3897H13.7651V13.8097H16.2026C16.9413 13.8097 17.4786 13.6729 17.8168 13.3993C18.1551 13.1158 18.3218 12.678 18.3218 12.086C18.3243 11.4791 18.1501 11.0464 17.8044 10.8001Z" fill="url(#paint0_linear_2973_12808)"/>
<path d="M14.9988 3C8.92482 3 4 7.92482 4 13.9988C4 20.0752 8.92482 25 14.9988 25C21.0727 25 25.9975 20.0752 25.9975 14.0012C26 7.92482 21.0752 3 14.9988 3ZM16.2971 15.0807H13.7651V18.8838H12.2727V9.11374H16.3245C18.6526 9.11374 19.8141 10.1062 19.8141 12.0835C19.8141 14.0833 18.6426 15.0807 16.2971 15.0807Z" fill="url(#paint1_linear_2973_12808)"/>
<defs>
<linearGradient id="paint0_linear_2973_12808" x1="20.7498" y1="-10.9228" x2="-5.38188" y2="14.7731" gradientUnits="userSpaceOnUse">
<stop offset="0.000950169" stop-color="#AEBEFF"/>
<stop offset="1" stop-color="#356FE7"/>
</linearGradient>
<linearGradient id="paint1_linear_2973_12808" x1="20.7498" y1="-10.9228" x2="-5.38188" y2="14.7731" gradientUnits="userSpaceOnUse">
<stop offset="0.000950169" stop-color="#AEBEFF"/>
<stop offset="1" stop-color="#356FE7"/>
</linearGradient>
</defs>
</svg>
