<svg width="29" height="28" viewBox="0 0 29 28" fill="none" xmlns="http://www.w3.org/2000/svg">
<path d="M25.9599 15.293C25.9241 15.0827 25.8471 14.8815 25.7334 14.701C25.6198 14.5204 25.4716 14.3641 25.2975 14.2408C25.1233 14.1176 24.9266 14.0299 24.7185 13.9828C24.5104 13.9357 24.2951 13.93 24.0848 13.9662C23.9313 13.9662 23.6571 13.6811 23.5804 13.4728C23.0906 12.2373 22.6227 10.9909 22.1768 9.73354C22.0572 9.363 21.8456 9.02883 21.5618 8.76227C21.278 8.49571 20.9312 8.30547 20.5539 8.20934C19.4574 7.92424 18.3608 7.74879 17.3301 7.52948C16.5199 7.41854 15.7023 7.37088 14.8848 7.38693C14.6785 6.33223 14.1632 5.36271 13.4044 4.6017C12.8987 4.08401 12.2925 3.675 11.6232 3.39972C10.9538 3.12444 10.2353 2.98867 9.51169 3.00074C8.05513 3.00709 6.65852 3.58146 5.61894 4.6017C4.60339 5.63902 4.0329 7.0318 4.02895 8.48348C4.02344 9.93701 4.59534 11.3332 5.61894 12.3653C5.8997 12.6491 6.21249 12.8993 6.55101 13.1109L6.38653 13.5495C6.30977 13.7359 6.05756 14.021 5.92598 14.0101C4.79653 13.8675 4.35791 14.5474 4.02895 15.4246C3.99035 15.6016 3.99035 15.7849 4.02895 15.9619L5.20226 16.269C5.20226 17.8699 5.20226 19.4599 5.13646 21.0499V23.6158C5.14039 24.0355 5.27875 24.4429 5.53122 24.7782C6.72104 24.9867 7.93807 24.9867 9.12789 24.7782C9.3801 24.6795 9.50072 23.4404 9.6981 22.6947H20.3675C20.6307 23.3965 20.1263 24.2628 20.9377 24.7782C22.1025 24.9579 23.2895 24.9356 24.4467 24.7124C24.6748 24.4242 24.8054 24.0709 24.8195 23.7036V17.6287C24.7951 17.1837 24.7438 16.7406 24.666 16.3019L25.9599 15.9619C26.0134 15.7422 26.0134 15.5128 25.9599 15.293ZM5.1255 8.48348C5.12992 7.32303 5.58617 6.20995 6.39749 5.38025C7.22945 4.56424 8.34636 4.10411 9.51169 4.09729C10.0911 4.08531 10.6668 4.19307 11.2026 4.41383C11.7385 4.63459 12.223 4.9636 12.6259 5.38025C13.1827 5.93198 13.5773 6.62616 13.7663 7.38693C13.7663 7.50755 13.7663 7.62817 13.8321 7.75975C13.8736 7.99881 13.8956 8.24085 13.8979 8.48348C13.8982 8.75942 13.8725 9.03477 13.8211 9.30589C13.6536 10.1664 13.2382 10.9592 12.6259 11.5867C11.7939 12.4027 10.677 12.8628 9.51169 12.8697C9.14134 12.8627 8.77317 12.8111 8.41514 12.7161C8.16327 12.654 7.91741 12.5696 7.68045 12.4639C7.44959 12.3613 7.22925 12.2364 7.02252 12.0911C6.81861 11.9474 6.6278 11.786 6.45232 11.6086C6.03458 11.202 5.70208 10.7162 5.47427 10.1796C5.24645 9.64305 5.12788 9.06642 5.1255 8.48348ZM9.89548 19.4489C9.5092 19.5249 9.11571 19.558 8.72217 19.5476C8.15197 19.4928 7.62563 19.4709 7.01156 19.3612C6.28784 19.2077 6.07949 18.6814 6.2988 17.7274C6.45232 17.0804 6.9677 17.0475 7.39535 17.201C8.32946 17.5135 9.24477 17.8797 10.1367 18.2976C10.356 18.3963 10.6082 18.813 10.5534 18.9665C10.4043 19.2059 10.1687 19.3787 9.89548 19.4489ZM7.79011 14.339L8.00942 13.7469C8.49805 13.8872 9.00335 13.9609 9.51169 13.9662C10.9682 13.9599 12.3649 13.3855 13.4044 12.3653C14.2027 11.538 14.7271 10.4852 14.9067 9.34975C16.3432 9.34975 17.7687 9.42651 19.2052 9.48133C19.6313 9.47284 20.0469 9.61417 20.3796 9.88069C20.7122 10.1472 20.9408 10.522 21.0254 10.9397C21.3325 12.0363 21.7382 13.1328 22.122 14.339C17.3969 15.3381 12.5152 15.3381 7.79011 14.339ZM23.1418 19.2954C22.5724 19.4003 21.9977 19.4735 21.4202 19.5147C20.9246 19.5006 20.4302 19.4567 19.9399 19.3832C19.3916 19.2625 19.2161 18.6265 19.6986 18.3963C20.7628 17.8988 21.8623 17.481 22.9883 17.1462C23.4378 17.0036 23.7449 17.3765 23.7668 17.8699C23.7887 18.3634 23.9094 19.109 23.0869 19.2954H23.1418Z" fill="url(#paint0_linear_2973_12802)"/>
<path d="M11.7048 9.58002V8.48348H9.51169V6.29038H8.41514V9.58002H11.7048Z" fill="url(#paint1_linear_2973_12802)"/>
<defs>
<linearGradient id="paint0_linear_2973_12802" x1="20.7517" y1="-10.8814" x2="-5.30349" y2="14.8187" gradientUnits="userSpaceOnUse">
<stop offset="0.000950169" stop-color="#AEBEFF"/>
<stop offset="1" stop-color="#356FE7"/>
</linearGradient>
<linearGradient id="paint1_linear_2973_12802" x1="20.7517" y1="-10.8814" x2="-5.30349" y2="14.8187" gradientUnits="userSpaceOnUse">
<stop offset="0.000950169" stop-color="#AEBEFF"/>
<stop offset="1" stop-color="#356FE7"/>
</linearGradient>
</defs>
</svg>
