<svg width="18" height="18" viewBox="0 0 18 18" fill="none" xmlns="http://www.w3.org/2000/svg">
<path d="M16.5233 10.4766L15.1873 9.46406C15.2014 9.32344 15.2155 9.16875 15.2155 9C15.2155 8.83125 15.2014 8.67656 15.1873 8.53594L16.5233 7.52344C16.8889 7.24219 16.9873 6.75 16.7483 6.32812L15.2577 3.81094C15.0889 3.51562 14.7655 3.33281 14.428 3.33281C14.3155 3.33281 14.217 3.34687 14.1045 3.38906L12.5155 4.00781C12.2483 3.825 11.967 3.67031 11.6858 3.54375L11.4467 1.92656C11.3764 1.4625 10.9827 1.125 10.5045 1.125H7.49515C7.01703 1.125 6.62328 1.4625 6.55297 1.9125L6.32797 3.54375C6.04672 3.67031 5.77953 3.825 5.49828 4.00781L3.90922 3.38906C3.79672 3.34687 3.68422 3.33281 3.57172 3.33281C3.23422 3.33281 2.91078 3.50156 2.75609 3.79688L1.25141 6.32812C1.01234 6.72188 1.11078 7.24219 1.47641 7.52344L2.81234 8.53594C2.79828 8.70469 2.78422 8.85938 2.78422 9C2.78422 9.14062 2.78422 9.29531 2.81234 9.46406L1.47641 10.4766C1.11078 10.7578 1.01234 11.25 1.25141 11.6719L2.74203 14.1891C2.91078 14.4844 3.23422 14.6672 3.57172 14.6672C3.68422 14.6672 3.78266 14.6531 3.89516 14.6109L5.48422 13.9922C5.7514 14.175 6.03265 14.3297 6.3139 14.4563L6.55297 16.0734C6.60922 16.5234 7.01703 16.875 7.49515 16.875H10.5045C10.9827 16.875 11.3764 16.5375 11.4467 16.0875L11.6858 14.4563C11.967 14.3297 12.2342 14.175 12.5155 13.9922L14.1045 14.6109C14.217 14.6531 14.3295 14.6672 14.442 14.6672C14.7795 14.6672 15.103 14.4984 15.2577 14.2031L16.7623 11.6578C16.9873 11.25 16.8889 10.7578 16.5233 10.4766ZM12.3748 9C12.3748 10.8562 10.8561 12.375 8.99984 12.375C7.14359 12.375 5.62484 10.8562 5.62484 9C5.62484 7.14375 7.14359 5.625 8.99984 5.625C10.8561 5.625 12.3748 7.14375 12.3748 9Z" fill="white" fill-opacity="0.75"/>
</svg>
