<svg width="351" height="126" viewBox="0 0 351 126" fill="none" xmlns="http://www.w3.org/2000/svg">
<mask id="mask0_6901_19724" style="mask-type:alpha" maskUnits="userSpaceOnUse" x="0" y="0" width="351" height="126">
<rect width="351" height="126" rx="4" fill="white"/>
</mask>
<g mask="url(#mask0_6901_19724)">
<path d="M345.197 39C347.543 39 349.793 39.9279 351.452 41.5796C353.111 43.2313 354.043 45.4715 354.043 47.8074L354.048 75.5005C348.079 71.7832 341.178 69.8177 334.138 69.8298C313.374 69.8298 296.54 86.5883 296.54 107.263C296.54 118.75 301.736 129.029 309.916 135.897L278.848 135.892C277.686 135.892 276.535 135.664 275.462 135.222C274.388 134.779 273.413 134.13 272.591 133.312C271.769 132.494 271.117 131.523 270.673 130.453C270.228 129.384 270 128.239 270 127.082V47.8074C270 46.6505 270.229 45.5051 270.674 44.4363C271.118 43.3676 271.77 42.3966 272.592 41.5787C273.413 40.7608 274.389 40.1121 275.462 39.6697C276.536 39.2272 277.686 38.9997 278.848 39H345.197ZM324.369 50.1988H299.677C298.798 50.2028 297.954 50.5377 297.313 51.1361C296.673 51.7345 296.284 52.5521 296.224 53.4246C296.164 54.2971 296.438 55.1598 296.991 55.8394C297.544 56.5189 298.335 56.9649 299.204 57.0877L299.677 57.1195H324.369C324.833 57.1322 325.296 57.0522 325.729 56.884C326.162 56.7159 326.556 56.4631 326.889 56.1405C327.222 55.8179 327.487 55.4321 327.668 55.0059C327.849 54.5797 327.942 54.1218 327.942 53.6591C327.942 53.1965 327.849 52.7385 327.668 52.3124C327.487 51.8862 327.222 51.5004 326.889 51.1778C326.556 50.8552 326.162 50.6024 325.729 50.4342C325.296 50.2661 324.833 50.186 324.369 50.1988Z" fill="#EEEEEE" fill-opacity="0.8"/>
<path d="M334.138 136C350.078 136 363 123.134 363 107.263C363 91.3924 350.078 78.5262 334.138 78.5262C318.199 78.5262 305.276 91.3924 305.276 107.263C305.276 123.134 318.199 136 334.138 136ZM326.766 94.7853L334.138 102.123L341.511 94.7853C342.2 94.1305 343.12 93.7702 344.073 93.7814C345.025 93.7926 345.936 94.1745 346.61 94.8453C347.284 95.5162 347.667 96.4229 347.678 97.3716C347.69 98.3203 347.328 99.2357 346.67 99.9223L339.3 107.263L346.67 114.604C347.328 115.29 347.69 116.206 347.678 117.155C347.667 118.103 347.284 119.01 346.61 119.681C345.936 120.352 345.025 120.734 344.073 120.745C343.12 120.756 342.2 120.396 341.511 119.741L334.138 112.403L326.766 119.741C326.076 120.396 325.157 120.756 324.204 120.745C323.251 120.734 322.34 120.352 321.667 119.681C320.993 119.01 320.609 118.103 320.598 117.155C320.587 116.206 320.949 115.29 321.606 114.604L328.976 107.263L321.606 99.9223C320.949 99.2357 320.587 98.3203 320.598 97.3716C320.609 96.4229 320.993 95.5162 321.667 94.8453C322.34 94.1745 323.251 93.7926 324.204 93.7814C325.157 93.7702 326.076 94.1305 326.766 94.7853Z" fill="#EEEEEE" fill-opacity="0.8"/>
</g>
</svg>
