<svg width="351" height="126" viewBox="0 0 351 126" fill="none" xmlns="http://www.w3.org/2000/svg">
<g opacity="0.5">
<mask id="mask0_1196_6838" style="mask-type:alpha" maskUnits="userSpaceOnUse" x="0" y="0" width="351" height="126">
<rect width="351" height="126" rx="4" fill="white"/>
</mask>
<g mask="url(#mask0_1196_6838)">
<g opacity="0.2">
<path d="M362.311 81.6655L345.067 54.4642C343.654 52.1456 340.545 51.5235 338 52.8808L252.293 106.944C249.975 108.528 249.353 111.525 250.71 114.013L267.783 141.045C269.366 143.363 272.363 143.985 274.85 142.628L360.558 88.3952C362.989 87.0945 363.668 83.8711 362.311 81.6655ZM358.749 85.6807L273.041 139.97C272.363 140.479 271.345 140.083 270.723 139.461L253.763 112.43C253.254 111.751 253.48 110.677 254.215 110.111L339.923 55.8215C340.601 55.3125 341.619 55.7084 342.241 56.3304L359.484 83.249C359.88 84.0973 359.484 85.2283 358.749 85.6807ZM284.122 65.0959L283.839 61.4766L286.949 63.3994L290.284 61.8159L289.38 65.3221L291.754 68.1497L287.853 68.4325L286.157 71.5428L284.744 68.2063L281.239 67.5277C281.295 67.6973 284.122 65.0959 284.122 65.0959ZM303.514 58.2532L305.097 54.9166L306.793 58.027L310.524 58.3097L308.15 61.0242L308.828 64.7566L305.493 63.1732L302.383 65.0959L302.892 61.3635L300.065 58.9884C299.726 59.0449 303.457 58.2532 303.514 58.2532ZM309.563 137.369L307.867 140.705L306.171 137.595L302.44 137.312L305.153 134.598L304.475 131.092L307.811 132.675L310.92 130.979L310.411 134.711L313.125 137.086C313.068 136.747 309.563 137.369 309.563 137.369ZM270.949 80.3649L268.801 77.4242L272.532 77.5373L274.85 74.5966L275.924 78.1028L279.43 79.3469L276.433 81.4959V85.2283L273.607 82.9097L270.101 83.9842C269.706 83.8711 270.949 80.3649 270.949 80.3649Z" fill="#0AC011"/>
<path d="M281.691 58.649C295.825 49.6573 313.238 49.4877 327.202 56.5001L330.538 54.3511C326.467 52.0325 321.944 50.2794 317.308 49.2049C311.146 47.7911 304.588 47.6215 298.426 48.696C291.867 49.7705 285.705 52.0325 280.052 55.7649C274.398 59.4973 269.649 63.7952 265.918 69.3373C262.186 74.7097 259.755 80.478 258.342 86.6421C257.381 91.3924 256.929 96.0862 257.381 100.78L260.716 98.631C259.812 83.0793 267.388 67.5277 281.691 58.649ZM330.99 136.351C316.856 145.343 299.613 145.512 285.592 138.5L282.256 140.649C286.327 142.967 290.85 144.721 295.486 145.795C301.648 147.209 308.206 147.379 314.369 146.304C320.927 145.23 327.089 142.798 332.743 139.235C338.396 135.729 343.145 131.205 346.877 125.606C350.608 120.234 352.982 114.409 354.283 108.188C355.357 103.438 355.696 98.8007 355.357 94.0503L352.247 96.1993C352.813 111.921 345.124 127.472 330.99 136.351Z" fill="#0AC011"/>
<path d="M292.037 74.7097C295.825 72.3345 300.348 70.9207 304.758 70.638L309.959 67.3014C303.062 66.3966 296.277 67.9801 290.171 71.8256C284.179 75.4449 279.938 81.1 277.507 87.66L282.822 84.3235C284.97 80.5345 287.91 77.198 292.037 74.7097ZM320.87 120.29C316.969 122.665 312.503 124.192 308.15 124.362L302.948 127.699C309.846 128.603 316.743 127.02 322.736 123.174C328.672 119.442 332.912 113.787 335.287 107.34L330.085 110.677C327.937 114.296 324.658 117.802 320.87 120.29ZM342.297 116.332L340.601 119.668L338.905 116.558L335.174 116.275L337.887 113.561L337.209 110.054L340.545 111.638L343.654 109.941L343.145 113.674L345.859 116.049C345.859 115.597 342.297 116.332 342.297 116.332ZM329.068 130.639L327.372 133.976L325.676 130.865L321.944 130.583L324.658 127.868L323.98 124.362L327.315 125.945L330.425 124.249L329.916 127.981L332.63 130.356C332.517 129.904 329.068 130.639 329.068 130.639ZM274.002 113.334C274.172 112.43 274.228 111.525 274.228 110.507L270.101 113.108L269.14 111.581L275.02 107.905L275.811 109.206C275.924 110.903 275.811 112.43 275.585 113.787C276.038 113.957 276.433 114.07 276.773 114.239L278.808 112.939L279.43 113.957C279.995 115.483 280.334 116.728 280.447 117.745L278.751 118.085C278.695 117.293 278.469 116.445 278.186 115.483L276.773 116.388L281.069 123.231C281.691 124.249 281.578 125.097 280.617 125.719L278.921 126.794L277.677 125.493C278.242 125.267 278.751 124.984 279.204 124.645C279.486 124.475 279.543 124.192 279.26 123.796L275.246 117.35L272.872 118.82L271.91 117.293L274.963 115.37C273.889 115.031 272.702 114.692 271.289 114.409L272.024 112.882C272.758 113.052 273.437 113.165 274.002 113.334ZM284.461 102.024L285.422 103.551L282.03 105.643C282.313 106.265 282.539 106.831 282.709 107.397L285.875 105.417L291.076 113.73L289.55 114.692L285.253 107.849L280.73 110.677L285.027 117.519L283.5 118.481L278.299 110.224L281.182 108.414C280.956 107.849 280.73 107.283 280.447 106.718L276.829 108.98L275.868 107.453L284.461 102.024ZM284.292 109.659L286.214 112.712C287.288 114.635 287.797 116.388 287.74 117.972C287.627 119.499 286.892 121.025 285.536 122.665L283.783 121.817C285.083 120.29 285.762 118.876 285.875 117.689C285.875 116.445 285.479 115.144 284.687 113.674L282.765 110.62L284.292 109.659ZM293.507 116.105L293.055 117.972C291.754 117.519 290.171 117.123 288.249 116.897L288.645 115.257C290.454 115.37 292.094 115.71 293.507 116.105ZM290.284 98.2917C290.793 100.837 291.019 103.042 291.019 104.852C291.641 104.399 292.207 103.89 292.772 103.325C292.716 102.477 292.659 101.515 292.546 100.554L294.525 100.158C294.751 103.947 294.694 106.831 294.412 108.754C295.486 107.736 296.503 106.718 297.465 105.474L298.369 106.944C296.786 108.81 295.147 110.45 293.507 111.751L292.15 110.507C292.376 110.168 292.489 109.885 292.602 109.545C292.772 108.641 292.885 107.227 292.829 105.304L290.511 107.34L289.154 106.039C289.323 105.757 289.436 105.417 289.436 104.965C289.267 102.929 288.871 100.78 288.249 98.5179L290.284 98.2917ZM300.8 110.337C299.387 112.034 297.634 113.787 295.542 115.597L294.299 114.126C296.503 112.203 298.313 110.394 299.726 108.697L300.8 110.337ZM296.334 93.9938C296.673 94.9552 296.956 95.9731 297.182 96.9345L302.44 93.6545C306.284 99.7621 308.545 103.608 309.28 105.134C309.902 106.492 309.393 107.679 307.867 108.641C307.415 108.923 306.68 109.319 305.606 109.941L304.249 108.697C305.21 108.188 306.001 107.736 306.68 107.283C307.415 106.831 307.641 106.152 307.302 105.304C306.849 104.343 305.04 101.346 301.931 96.2559L297.578 98.9703C297.747 100.554 297.691 102.024 297.465 103.494L295.599 102.759C295.995 100.158 295.655 97.5 294.694 94.729L296.334 93.9938ZM304.362 103.834L303.57 105.7C302.157 104.965 300.404 104.23 298.369 103.494L299.217 101.798C301.309 102.477 303.005 103.155 304.362 103.834ZM318.213 82.5138L317.93 83.8145L320.022 82.5138L320.983 84.0973L315.839 87.3207C317.252 89.3 318.439 90.7138 319.4 91.6752C319.626 91.9014 319.909 92.1841 320.192 92.4104C320.135 90.6572 319.796 88.8476 319.287 86.9248L321.209 86.6421C321.888 89.3 322.227 91.7317 322.114 93.9372C322.566 94.22 322.962 94.4462 323.358 94.6159C324.375 95.0683 324.997 95.1814 325.28 95.0117C325.506 94.8986 325.223 93.8807 324.375 92.071L326.354 91.9579C327.428 94.6159 327.541 96.1993 326.693 96.7083C325.958 97.1607 324.828 97.1607 323.358 96.6517C322.849 96.4821 322.397 96.2559 321.888 95.9731C321.549 98.009 320.814 99.8186 319.683 101.459L317.874 100.667C319.061 98.9138 319.796 96.9345 320.022 94.8421C319.4 94.3897 318.778 93.8241 318.1 93.2021C316.856 92.0145 315.499 90.431 314.086 88.3952L308.545 91.8448L310.128 94.3897L314.369 91.7317C316.291 94.8986 317.365 96.9345 317.591 97.9524C317.761 98.8572 317.422 99.5924 316.517 100.158C316.121 100.441 315.612 100.667 315.047 100.95L313.634 99.7621C314.369 99.3662 314.934 99.0269 315.443 98.7441C315.725 98.5179 315.839 98.2352 315.669 97.7828C315.499 97.2738 314.821 96.0862 313.747 94.2766L311.146 95.9165L311.203 96.0297C313.125 99.2531 314.029 102.25 313.916 105.021L311.994 104.682C312.107 102.42 311.259 99.8752 309.563 97.0476L305.945 91.2793L313.068 86.8117C312.503 86.02 311.994 85.1717 311.429 84.3235L313.068 83.3055C313.634 84.2104 314.199 85.0021 314.708 85.7938L317.365 84.1538C316.574 83.9276 315.669 83.758 314.595 83.6449L314.991 82.0049C316.234 82.0049 317.308 82.2311 318.213 82.5138ZM322.34 82.2311L321.379 80.6476L327.711 76.689L328.672 78.2725L326.298 79.7428L330.934 87.2076C331.612 86.4159 332.29 85.6242 332.969 84.7759L333.986 86.4159C332.46 88.3386 330.707 90.2614 328.785 92.1841L327.315 90.7704C328.096 90.1025 328.85 89.4045 329.577 88.6779L324.658 80.8173L322.34 82.2311ZM331.16 72.1083L333.251 75.4449L337.605 72.7304C341.11 78.3856 343.202 81.8918 343.88 83.3621C344.445 84.7759 343.88 86.0766 342.128 87.1511C341.845 87.3207 341.223 87.66 340.431 88.1124L339.075 86.8117C339.81 86.4159 340.431 86.0766 340.884 85.7938C341.901 85.1717 342.184 84.4366 341.901 83.5317C341.506 82.6269 339.866 79.9125 337.039 75.3318L334.326 77.0283L334.382 77.0849C337.435 82.118 338.396 86.6421 337.209 90.6572L335.117 90.3179C336.304 86.7552 335.513 82.6835 332.686 78.1594L332.63 78.1028L330.029 79.7428L329.011 78.1594L331.612 76.5194L329.52 73.1828L331.16 72.1083Z" fill="#0AC011"/>
</g>
</g>
</g>
</svg>
