<svg width="351" height="329" viewBox="0 0 351 329" fill="none" xmlns="http://www.w3.org/2000/svg">
<mask id="mask0_2442_18245" style="mask-type:alpha" maskUnits="userSpaceOnUse" x="0" y="0" width="351" height="329">
<rect width="351" height="329" rx="4" fill="white"/>
</mask>
<g mask="url(#mask0_2442_18245)">
<path opacity="0.5" d="M378.023 167.421C371.485 178.817 362.752 188.803 352.328 196.802C341.904 204.8 329.998 210.651 317.298 214.017C304.618 217.451 291.383 218.336 278.358 216.62C265.334 214.905 252.779 210.623 241.421 204.023C230.025 197.485 220.039 188.751 212.041 178.328C204.042 167.904 198.191 155.998 194.825 143.298C191.391 130.618 190.507 117.383 192.222 104.358C193.938 91.3343 198.219 78.7797 204.819 67.4211C211.357 56.0262 220.09 46.0412 230.513 38.0441C240.935 30.0471 252.841 24.1968 265.54 20.8319C278.22 17.3974 291.456 16.5116 304.481 18.2258C317.505 19.94 330.061 24.2202 341.421 30.8187C352.816 37.3566 362.801 46.0897 370.798 56.5125C378.795 66.9354 384.645 78.8409 388.01 91.5399C391.445 104.22 392.332 117.456 390.617 130.481C388.903 143.506 384.622 156.061 378.023 167.421ZM233.661 84.131C226.46 96.4965 223.456 110.862 225.099 125.077C226.743 139.292 232.946 152.592 242.779 162.988C253.75 174.583 268.497 181.884 284.369 183.578C300.241 185.272 316.197 181.247 329.367 172.229C337.482 166.635 344.243 159.298 349.156 150.754C354.653 141.258 357.717 130.551 358.077 119.585C358.437 108.619 356.081 97.7338 351.219 87.898C350.927 87.3087 350.523 86.7827 350.028 86.3501C349.533 85.9174 348.957 85.5866 348.335 85.3765C347.711 85.164 347.052 85.0769 346.394 85.12C345.737 85.1632 345.094 85.3359 344.504 85.6282C343.62 86.0677 342.886 86.7589 342.395 87.6147C341.982 88.3278 341.751 89.1319 341.724 89.9556C341.697 90.7792 341.873 91.5968 342.238 92.3357C346.373 100.695 348.377 109.947 348.073 119.268C347.768 128.589 345.163 137.69 340.491 145.761C336.379 152.903 330.746 159.053 323.991 163.774C312.924 171.546 299.443 175.104 285.983 173.806C272.538 172.501 260 166.44 250.626 156.713C242.044 147.838 236.622 136.385 235.196 124.123C233.772 111.993 236.283 99.7272 242.359 89.1332C243.568 87.0389 244.908 85.0232 246.372 83.0981C254.567 72.3395 266.339 64.8663 279.562 62.0286C292.783 59.1917 306.582 61.1761 318.468 67.6232L310.44 72.3794C309.702 72.8043 309.092 73.4186 308.672 74.1587C308.228 74.9272 307.997 75.7999 308.002 76.6873C308.007 77.5747 308.248 78.4447 308.701 79.2081C309.033 79.775 309.475 80.2701 310.001 80.6644C310.526 81.0588 311.125 81.3445 311.762 81.505C312.399 81.6695 313.061 81.707 313.711 81.6153C314.362 81.5237 314.988 81.3047 315.554 80.971L330.581 72.0763C331.32 71.6388 331.933 71.0186 332.362 70.2754C332.77 69.5681 332.999 68.7717 333.028 67.9558C333.058 67.1188 332.878 66.2875 332.503 65.5383C332.129 64.7891 331.572 64.146 330.884 63.668C328.232 61.8288 326.235 60.5216 324.791 59.6883C310.926 51.7798 294.694 49.0771 279.015 52.0663C263.335 55.0555 249.236 63.5404 239.253 75.9954C237.192 78.5664 235.323 81.2856 233.661 84.131ZM275.846 127.731C275.183 128.88 275.003 130.244 275.346 131.525C275.689 132.806 276.527 133.898 277.676 134.561C278.824 135.224 280.189 135.404 281.47 135.061C282.751 134.718 283.843 133.88 284.506 132.731L290.756 121.906L296.529 125.239L290.279 136.065C289.616 137.213 289.437 138.578 289.78 139.859C290.123 141.14 290.961 142.232 292.11 142.895C293.258 143.558 294.623 143.737 295.904 143.394C297.185 143.051 298.277 142.213 298.94 141.065L305.19 130.239L310.963 133.573C312.112 134.236 313.476 134.415 314.757 134.072C316.038 133.729 317.13 132.891 317.793 131.742C318.456 130.594 318.636 129.229 318.293 127.948C317.95 126.667 317.112 125.575 315.963 124.912L310.19 121.579L315.606 112.197C316.269 111.049 316.449 109.684 316.106 108.403C315.763 107.122 314.925 106.03 313.776 105.367C312.628 104.704 311.263 104.524 309.982 104.868C308.701 105.211 307.609 106.049 306.946 107.197L301.529 116.579L295.756 113.246L301.173 103.864C301.836 102.715 302.015 101.351 301.672 100.07C301.329 98.7889 300.491 97.6968 299.342 97.0337C298.194 96.3707 296.829 96.191 295.548 96.5342C294.267 96.8774 293.175 97.7154 292.512 98.8638L288.821 105.258L282.767 88.8108C282.308 87.5687 281.375 86.5593 280.172 86.0043C279.576 85.7279 278.932 85.5717 278.276 85.5444C277.619 85.5172 276.964 85.6196 276.348 85.8457C275.25 86.2495 274.329 87.0252 273.744 88.0378C273.378 88.6727 273.155 89.3805 273.093 90.111C273.03 90.8414 273.129 91.5767 273.382 92.2647L280.299 111.067L260.536 114.466C259.812 114.591 259.124 114.873 258.522 115.294C257.92 115.715 257.418 116.263 257.052 116.9C256.467 117.913 256.256 119.098 256.455 120.25C256.682 121.557 257.419 122.719 258.503 123.482C259.587 124.245 260.93 124.546 262.237 124.32L279.5 121.335L275.846 127.731Z" fill="#EEEEEE"/>
</g>
</svg>
