<svg width="20" height="20" viewBox="0 0 20 20" fill="none" xmlns="http://www.w3.org/2000/svg">
<path d="M15.5098 16.0154C14.8375 16.6454 13.9335 17.0312 12.9395 17.0312C10.863 17.0312 9.17969 15.3479 9.17969 13.2715C9.17969 11.195 10.863 9.51172 12.9395 9.51172C15.0159 9.51172 16.6992 11.195 16.6992 13.2715C16.6992 13.7337 16.6158 14.1763 16.4633 14.5853L18.4128 15.9104C18.8053 16.1771 18.9072 16.7116 18.6404 17.1042C18.3736 17.4967 17.8391 17.5986 17.4466 17.3318L15.5098 16.0154ZM1.64062 2.87109C1.16602 2.87109 0.78125 2.48633 0.78125 2.01172C0.78125 1.53711 1.16602 1.15234 1.64062 1.15234H17.9297C18.4043 1.15234 18.7891 1.53711 18.7891 2.01172C18.7891 2.48633 18.4043 2.87109 17.9297 2.87109H1.64062ZM1.64062 12.6074C1.16602 12.6074 0.78125 12.2227 0.78125 11.748C0.78125 11.2734 1.16602 10.8887 1.64062 10.8887H6.54297C7.01758 10.8887 7.40234 11.2734 7.40234 11.748C7.40234 12.2227 7.01758 12.6074 6.54297 12.6074H1.64062ZM1.64062 7.74414C1.16602 7.74414 0.78125 7.35938 0.78125 6.88477C0.78125 6.41016 1.16602 6.02539 1.64062 6.02539H17.9297C18.4043 6.02539 18.7891 6.41016 18.7891 6.88477C18.7891 7.35938 18.4043 7.74414 17.9297 7.74414H1.64062ZM1.64062 17.4902C1.16602 17.4902 0.78125 17.1055 0.78125 16.6309C0.78125 16.1562 1.16602 15.7715 1.64062 15.7715H6.54297C7.01758 15.7715 7.40234 16.1562 7.40234 16.6309C7.40234 17.1055 7.01758 17.4902 6.54297 17.4902H1.64062ZM12.9395 15.3125C14.0667 15.3125 14.9805 14.3987 14.9805 13.2715C14.9805 12.1443 14.0667 11.2305 12.9395 11.2305C11.8122 11.2305 10.8984 12.1443 10.8984 13.2715C10.8984 14.3987 11.8122 15.3125 12.9395 15.3125Z" fill="#888888"/>
</svg>
