<svg width="351" height="126" viewBox="0 0 351 126" fill="none" xmlns="http://www.w3.org/2000/svg">
<mask id="mask0_2442_19056" style="mask-type:alpha" maskUnits="userSpaceOnUse" x="0" y="0" width="351" height="126">
<rect width="351" height="126" rx="4" fill="white"/>
</mask>
<g mask="url(#mask0_2442_19056)">
<path opacity="0.5" d="M255.84 12C268.67 12 279.071 22.4045 279.071 35.239C279.071 48.073 268.67 58.4775 255.84 58.4775C243.009 58.4775 232.608 48.073 232.608 35.239C232.608 22.4045 243.009 12 255.84 12ZM267.422 33.0376V24.1375L252.508 37.4401L244.257 30.0558V38.956L252.508 46.3404L267.422 33.0376ZM359.904 90.3629C359.055 90.4092 358.065 90.4335 356.933 90.4335H330.909C330.249 90.4335 329.589 90.1031 328.929 89.4431C328.269 88.782 327.938 88.2167 327.938 87.7447V87.6035C327.845 82.9814 327.796 78.7847 327.796 75.0108V62.1367C327.796 61.0991 328.222 60.1318 329.07 59.2363C329.919 58.3401 330.956 57.8932 332.182 57.8932C332.276 57.8932 332.983 57.8453 334.304 57.7508C335.624 57.6562 337.25 57.7268 339.184 57.9626C341.117 58.1979 343.167 58.7175 345.336 59.5189C347.504 60.3206 349.532 61.6177 351.418 63.4101C354.341 66.4287 356.415 70.0835 357.641 74.3748C358.867 78.6661 359.999 83.1228 361.035 87.7445C361.035 87.9333 361.06 88.0749 361.106 88.1695C361.153 88.2632 361.176 88.4053 361.176 88.5939C361.176 89.7268 360.753 90.3162 359.904 90.3631L359.904 90.3629ZM371.007 92.0606C370.299 86.7315 369.05 81.2839 367.258 75.7192C365.466 70.1543 362.779 64.9185 359.196 60.0157C357.216 57.2799 354.765 54.922 351.841 52.9416C348.934 50.9682 345.8 49.3526 342.506 48.1298C339.206 46.9036 335.858 46.0319 332.464 45.5132C329.069 44.9944 325.816 44.8769 322.704 45.1595C321.668 45.2532 320.795 45.9852 320.088 47.3523C319.381 48.7194 319.027 49.9225 319.027 50.9596V119.155C319.027 120.853 319.64 122.315 320.866 123.541C322.092 124.767 323.552 125.38 325.25 125.38H327.796C327.796 123.022 328.244 120.781 329.14 118.659C330.036 116.537 331.262 114.675 332.818 113.071C334.374 111.467 336.188 110.193 338.263 109.251C340.337 108.307 342.6 107.835 345.051 107.835C347.504 107.835 349.837 108.166 352.053 108.826C354.269 109.486 356.203 110.524 357.851 111.938C359.502 113.354 360.822 115.192 361.812 117.456C362.802 119.72 363.297 122.456 363.297 125.663H369.096C369.662 125.663 370.11 125.379 370.441 124.814C370.769 124.247 371.053 123.564 371.288 122.761C371.522 121.975 371.687 121.171 371.783 120.357C371.878 119.555 371.925 118.87 371.925 118.305C371.925 115.381 371.949 111.607 371.995 106.986C372.043 102.366 371.713 97.3902 371.005 92.0607H371.007V92.0606ZM345.759 116.749C348.211 116.749 350.333 117.645 352.124 119.438C353.916 121.23 354.812 123.351 354.812 125.804C354.812 128.35 353.916 130.52 352.124 132.311C350.333 134.104 348.211 135 345.759 135C343.214 135 341.068 134.104 339.324 132.311C337.58 130.519 336.707 128.35 336.707 125.804C336.707 123.351 337.58 121.23 339.324 119.438C341.068 117.645 343.213 116.749 345.759 116.749V116.749ZM248.45 116.608C245.904 116.608 243.758 117.504 242.014 119.295C240.269 121.088 239.398 123.257 239.398 125.805C239.398 128.255 240.269 130.378 242.014 132.171C243.758 133.963 245.904 134.859 248.45 134.859C250.996 134.859 253.141 133.963 254.885 132.171C256.63 130.378 257.501 128.256 257.501 125.805C257.501 123.258 256.629 121.087 254.885 119.295C253.141 117.504 250.996 116.608 248.45 116.608ZM284.585 27.8979C285.287 30.3972 285.641 32.9972 285.641 35.6978C285.641 39.8168 284.858 43.6687 283.29 47.2508C281.724 50.8329 279.598 53.9672 276.912 56.6536C274.227 59.3396 271.094 61.4451 267.513 62.9669C263.931 64.4888 260.127 65.25 256.098 65.25C251.98 65.25 248.13 64.4888 244.549 62.9669C240.968 61.4448 237.835 59.3396 235.149 56.6536C232.463 53.9672 230.338 50.8329 228.771 47.2508C227.204 43.6687 226.421 39.8176 226.421 35.6978C226.421 35.2477 226.432 34.8011 226.451 34.3564C225.103 36.0109 224.042 37.819 223.273 39.7826C222.424 41.9515 222 44.1685 222 46.4323V120.003C222 121.796 222.519 123.163 223.556 124.106C224.594 125.048 225.913 125.521 227.516 125.521H230.77C230.77 119.485 232.303 114.981 235.366 112.01C238.43 109.039 242.839 107.552 248.59 107.552C254.626 107.552 259.058 109.156 261.886 112.364C264.715 115.57 266.13 119.957 266.13 125.521H304.742C306.252 125.521 307.546 125.002 308.631 123.964C309.716 122.927 310.258 121.607 310.258 120.004L309.975 27.8979H284.585Z" fill="#EEEEEE"/>
</g>
</svg>
