<svg width="351" height="126" viewBox="0 0 351 126" fill="none" xmlns="http://www.w3.org/2000/svg">
<mask id="mask0_1197_6026" style="mask-type:alpha" maskUnits="userSpaceOnUse" x="0" y="0" width="351" height="126">
<rect width="351" height="126" rx="4" fill="white"/>
</mask>
<g mask="url(#mask0_1197_6026)">
<g opacity="0.5">
<path d="M286.685 5.8475C265.037 5.91821 244.39 14.77 229.184 30.2622C221.517 38.0745 215.568 47.3139 211.595 57.4534C207.75 67.198 205.749 77.7127 205.847 88.2077C205.917 109.855 214.769 130.502 230.261 145.708C245.753 160.914 266.562 169.379 288.207 169.046C309.854 168.975 330.501 160.123 345.707 144.631C353.375 136.819 359.324 127.579 363.297 117.44C367.142 107.695 369.143 97.1806 369.045 86.6855C368.974 65.0382 360.122 44.3912 344.63 29.1854C329.138 13.9795 308.329 5.51441 286.685 5.8475ZM341.073 140.082C312.09 169.61 264.338 170.056 234.81 141.073C205.282 112.091 204.837 64.3388 233.819 34.8109C262.801 5.28306 310.554 4.83765 340.081 33.8198C369.609 62.8019 370.055 110.554 341.073 140.082Z" fill="#EEEEEE"/>
<path d="M286.935 18.5715C268.568 18.7428 251.187 26.1209 238.321 39.2297C225.584 52.2061 218.402 69.8539 218.703 88.0878C218.874 106.454 226.252 123.835 239.361 136.701C252.338 149.438 269.985 156.621 288.352 156.449C306.718 156.278 324.099 148.9 336.965 135.791C349.702 122.815 356.884 105.167 356.713 86.8005C356.542 68.4342 349.164 51.0534 336.055 38.1869C322.686 25.5852 305.038 18.4027 286.935 18.5715ZM334.452 133.584C308.979 159.537 267.261 159.926 241.308 134.453C215.356 108.98 214.966 67.2619 240.439 41.3092C265.913 15.3564 307.63 14.9673 333.583 40.4404C359.536 65.9135 359.925 107.631 334.452 133.584Z" fill="#EEEEEE"/>
<path d="M242.224 77.8973L242.18 73.1745L245.959 70.384L241.486 69.1138L240 64.5356L237.281 68.3658L232.558 68.4098L235.478 72.0562L233.816 76.6637L238.394 75.1778L242.224 77.8973ZM300.811 43.3701L300.634 38.5173L304.545 35.8568L299.94 34.4566L298.454 29.8785L295.735 33.7086L291.012 33.7527L293.803 37.5314L292.402 42.1365L296.848 40.5206L300.811 43.3701ZM243.087 100.062L242.91 95.2092L246.821 92.5487L242.216 91.1485L240.86 86.438L238.011 90.4005L233.288 90.4446L236.209 94.0909L234.678 98.8284L239.124 97.2125L243.087 100.062ZM278.109 42.9258L277.932 38.0731L281.844 35.4126L277.239 34.0123L275.753 29.4342L273.033 33.2644L268.31 33.3084L271.101 37.0872L269.701 41.6922L274.146 40.0764L278.109 42.9258ZM255.39 54.6833L255.346 49.9605L259.254 47.0377L254.649 45.6374L253.296 41.1893L250.447 45.1518L245.854 45.0635L248.644 48.8422L247.111 53.3173L251.69 51.8314L255.39 54.6833ZM276.935 128.085L277.112 132.938L273.2 135.599L277.806 136.999L279.291 141.577L282.011 137.747L286.734 137.703L283.943 133.924L285.343 129.319L280.898 130.935L276.935 128.085ZM322.356 116.772L322.4 121.495L318.491 124.418L322.964 125.688L324.45 130.266L327.299 126.304L331.892 126.392L329.102 122.613L330.634 118.138L326.056 119.624L322.356 116.772ZM338.622 74.2429L334.659 71.3935L334.836 76.2462L330.924 78.9067L335.529 80.307L337.015 84.8851L339.602 80.925L344.458 81.0109L341.667 77.2321L343.067 72.6271L338.622 74.2429ZM299.637 128.53L299.813 133.382L295.902 136.043L300.507 137.443L301.993 142.021L304.713 138.191L309.435 138.147L306.645 134.368L308.045 129.763L303.599 131.379L299.637 128.53ZM335.522 93.5582L335.566 98.281L331.787 101.071L336.26 102.342L337.746 106.92L340.465 103.09L345.188 103.046L342.397 99.2669L343.93 94.7918L339.352 96.2777L335.522 93.5582ZM278.218 110.886C279.128 109.959 279.51 108.775 279.633 107.855C279.623 106.806 278.159 104.589 275.506 101.465L272.635 103.066C275.021 105.668 276.217 107.363 276.092 108.02C275.967 108.677 275.709 109.204 275.32 109.601L263.623 121.518C262.713 122.445 261.926 122.453 260.999 121.543L254.378 115.045L268.934 100.214L258.871 90.3371L241.326 108.213L243.445 110.292L258.91 94.5352L264.604 100.124L252.257 112.703L248.947 109.454L246.738 111.705L259.184 123.921C261.303 126.001 263.402 125.981 265.351 123.995L278.218 110.886ZM287.39 67.3736L285.271 65.2942L276.044 74.6954L274.72 73.3958L263.543 84.7832L265.661 86.8626L267.351 85.1413L281.519 99.0475L279.834 101.294L282.605 102.973C284.677 100.068 286.749 97.1619 288.559 94.2586L292.266 97.8976L294.476 95.6466L290.371 91.6177L291.791 89.1117L289.54 86.9023C289.022 87.6943 288.637 88.6163 288.12 89.4083L275.408 76.9317L276.838 75.4752L278.162 76.7748L279.072 75.848C283.172 79.3521 287.787 81.8019 292.787 83.3296C293.603 86.4708 293.765 89.7493 293.402 93.0327L296.683 93.1333C297.048 90.1123 296.759 87.2286 296.205 84.0849C298.833 84.5852 301.592 84.9531 304.611 85.0561L304.449 81.7777C301.3 81.807 298.412 81.5716 295.388 80.9438C293.775 76.7604 291.107 72.0621 287.39 67.3736ZM286.44 92.1792C285.535 93.6308 284.501 95.2149 283.463 96.5366L280.021 93.1575L283.66 89.4499L286.44 92.1792ZM281.541 87.3705L277.902 91.078L274.724 87.9589L278.363 84.2514L281.541 87.3705ZM276.377 82.3019L272.738 86.0094L269.56 82.8903L273.199 79.1827L276.377 82.3019ZM291.575 80.0609C287.89 78.7833 284.327 76.5861 281.021 73.8618L285.31 69.4922C288.098 73.0086 290.232 76.6623 291.575 80.0609ZM305.099 67.0772L302.487 68.4136C304.361 72.3321 305.842 76.3855 307.063 80.7037L310.069 79.4948C308.718 75.309 307.107 71.3881 305.099 67.0772ZM322.247 62.8501L319.645 65.2359L322.546 66.7833L325.145 64.135C326.835 62.4137 326.687 60.7095 324.966 59.0199L312.255 46.5433L307.316 51.575L300.96 45.3367L298.751 47.5877L305.107 53.826L300.168 58.8576L315.528 73.9335L317.737 71.6825L312.705 66.7439L320.373 58.9316L322.227 60.7511C322.889 61.4009 322.896 62.188 322.247 62.8501ZM304.628 58.816L312.296 51.0037L314.547 53.2131L306.879 61.0254L304.628 58.816ZM310.852 64.9244L308.733 62.8449L316.401 55.0326L318.52 57.1121L310.852 64.9244Z" fill="#EEEEEE"/>
<path d="M305.519 41.7517C306.325 43.8434 306.87 45.9375 307.287 48.4264L309.903 47.6148C309.619 45.2559 309.072 42.8994 308.265 40.8077L305.519 41.7517ZM294.099 55.2406C296.2 55.4834 298.434 55.8562 300.671 56.4913L301.563 53.7278C299.327 53.0927 297.223 52.5875 295.122 52.3447L294.099 55.2406ZM296.119 60.8634L296.09 57.7149C293.729 57.7369 291.237 57.8913 288.356 58.443L288.385 61.5915C291.529 61.0374 294.02 60.883 296.119 60.8634ZM300.903 67.3788L300.742 64.1003C298.51 63.9899 296.019 64.1443 293.267 64.5636L293.297 67.7121C296.311 67.2904 298.802 67.1359 300.903 67.3788Z" fill="#EEEEEE"/>
</g>
</g>
</svg>
