<svg width="351" height="126" viewBox="0 0 351 126" fill="none" xmlns="http://www.w3.org/2000/svg">
<mask id="mask0_1196_7183" style="mask-type:alpha" maskUnits="userSpaceOnUse" x="0" y="0" width="351" height="126">
<rect width="351" height="126" rx="4" fill="white"/>
</mask>
<g mask="url(#mask0_1196_7183)">
<path opacity="0.5" d="M355.788 133.745C350.43 143.085 343.273 151.269 334.73 157.824C326.188 164.379 316.43 169.174 306.022 171.932C295.63 174.746 284.784 175.471 274.11 174.065C263.436 172.66 253.147 169.151 243.839 163.742C234.499 158.383 226.315 151.226 219.76 142.684C213.206 134.141 208.41 124.384 205.652 113.976C202.838 103.584 202.113 92.7374 203.519 82.0637C204.925 71.39 208.433 61.1012 213.842 51.7925C219.2 42.454 226.357 34.271 234.899 27.7172C243.441 21.1634 253.198 16.3689 263.605 13.6113C273.997 10.7966 284.843 10.0707 295.518 11.4755C306.192 12.8804 316.482 16.3881 325.791 21.7957C335.13 27.1537 343.313 34.3108 349.867 42.8526C356.42 51.3944 361.215 61.1513 363.972 71.5586C366.788 81.9503 367.514 92.7973 366.109 103.472C364.704 114.146 361.196 124.436 355.788 133.745ZM237.479 65.4867C231.577 75.6206 229.116 87.3932 230.463 99.0428C231.81 110.692 236.893 121.593 244.952 130.112C253.942 139.615 266.028 145.598 279.036 146.986C292.043 148.374 305.12 145.076 315.913 137.685C322.563 133.101 328.104 127.088 332.13 120.086C336.635 112.304 339.147 103.529 339.442 94.5423C339.737 85.5552 337.806 76.6346 333.821 68.5739C333.582 68.091 333.25 67.6599 332.845 67.3053C332.439 66.9508 331.968 66.6796 331.457 66.5075C330.946 66.3333 330.406 66.2619 329.867 66.2973C329.328 66.3327 328.802 66.4742 328.318 66.7137C327.594 67.0739 326.992 67.6404 326.59 68.3418C326.251 68.9261 326.062 69.5852 326.04 70.2601C326.017 70.9351 326.162 71.6052 326.461 72.2107C329.85 79.0614 331.492 86.6435 331.243 94.2824C330.993 101.921 328.859 109.38 325.03 115.995C321.66 121.848 317.043 126.888 311.507 130.757C302.438 137.126 291.39 140.042 280.359 138.978C269.34 137.909 259.065 132.941 251.383 124.969C244.35 117.696 239.906 108.311 238.737 98.2611C237.57 88.3207 239.628 78.2683 244.607 69.5862C245.598 67.8698 246.697 66.2179 247.896 64.6403C254.612 55.8232 264.259 49.6987 275.096 47.3732C285.931 45.0483 297.24 46.6745 306.981 51.9581L300.401 55.856C299.797 56.2042 299.297 56.7076 298.952 57.3141C298.589 57.944 298.399 58.6592 298.404 59.3864C298.408 60.1137 298.605 60.8267 298.976 61.4523C299.249 61.9169 299.611 62.3226 300.042 62.6458C300.472 62.969 300.963 63.2032 301.485 63.3347C302.007 63.4694 302.55 63.5002 303.083 63.4251C303.616 63.35 304.129 63.1705 304.593 62.897L316.908 55.6076C317.513 55.249 318.016 54.7407 318.367 54.1317C318.702 53.552 318.889 52.8994 318.913 52.2307C318.938 51.5447 318.79 50.8635 318.483 50.2495C318.176 49.6355 317.72 49.1085 317.156 48.7168C314.983 47.2094 313.346 46.1382 312.163 45.4553C300.8 38.974 287.498 36.7591 274.648 39.2088C261.798 41.6585 250.243 48.6122 242.062 58.8194C240.373 60.9264 238.841 63.1549 237.479 65.4867ZM272.051 101.218C271.507 102.16 271.36 103.278 271.641 104.328C271.923 105.377 272.609 106.272 273.551 106.816C274.492 107.359 275.61 107.507 276.66 107.225C277.71 106.944 278.605 106.257 279.148 105.316L284.27 96.4444L289.002 99.1762L283.88 108.048C283.336 108.989 283.189 110.107 283.47 111.157C283.751 112.207 284.438 113.102 285.379 113.645C286.321 114.189 287.439 114.336 288.489 114.055C289.538 113.773 290.433 113.087 290.977 112.145L296.099 103.274L300.83 106.006C301.772 106.549 302.89 106.696 303.94 106.415C304.99 106.134 305.884 105.447 306.428 104.506C306.971 103.565 307.119 102.446 306.837 101.396C306.556 100.347 305.869 99.4516 304.928 98.9082L300.197 96.1765L304.636 88.4877C305.179 87.5466 305.326 86.4281 305.045 85.3784C304.764 84.3287 304.077 83.4337 303.136 82.8903C302.195 82.3469 301.076 82.1997 300.026 82.4809C298.977 82.7622 298.082 83.449 297.538 84.3901L293.099 92.0789L288.368 89.3471L292.807 81.6584C293.35 80.7172 293.497 79.5987 293.216 78.549C292.935 77.4993 292.248 76.6043 291.307 76.0609C290.366 75.5175 289.247 75.3703 288.198 75.6515C287.148 75.9328 286.253 76.6196 285.709 77.5607L282.684 82.8009L277.723 69.322C277.346 68.304 276.582 67.4768 275.596 67.022C275.108 66.7955 274.58 66.6674 274.042 66.6451C273.504 66.6228 272.967 66.7067 272.462 66.8919C271.563 67.2229 270.808 67.8586 270.329 68.6885C270.028 69.2088 269.846 69.7888 269.795 70.3875C269.743 70.9861 269.824 71.5887 270.032 72.1526L275.701 87.5618L259.504 90.3469C258.911 90.4493 258.347 90.6811 257.854 91.0259C257.36 91.3707 256.949 91.82 256.649 92.3418C256.17 93.1717 255.996 94.1433 256.159 95.0876C256.346 96.1581 256.949 97.1108 257.838 97.7361C258.727 98.3615 259.827 98.6084 260.898 98.4225L275.046 95.9764L272.051 101.218Z" fill="#EEEEEE"/>
</g>
</svg>
