<svg width="35" height="49" viewBox="0 0 35 49" fill="none" xmlns="http://www.w3.org/2000/svg">
<path d="M28.6813 23.3418L3.35352 38.1523L4.89118 40.7869L30.219 25.9763L28.6813 23.3418Z" fill="#F9B94F"/>
<path d="M22.0389 41.0554C29.033 36.9656 32.6968 30.2132 30.2223 25.9735C27.7478 21.7338 20.0721 21.6123 13.078 25.7021C6.0839 29.792 2.42004 36.5444 4.89453 40.7841C7.36903 45.0238 15.0448 45.1452 22.0389 41.0554Z" fill="#BBBBBB"/>
<path d="M28.7956 23.4919C31.2691 27.7291 27.606 34.4819 20.6118 38.5752C13.6176 42.6635 5.93932 42.5445 3.46582 38.3073C0.992322 34.0701 4.65548 27.3173 11.6497 23.224C18.6439 19.1307 26.3172 19.2498 28.7956 23.4919Z" fill="url(#paint0_linear_7617_23577)"/>
<path d="M26.3464 24.3971C26.4356 24.5509 26.5198 24.7146 26.5892 24.8784C28.111 28.4061 25.0179 33.7001 19.3968 36.9896C13.7707 40.2792 7.64394 40.3784 5.31915 37.3171C5.2101 37.1732 5.11097 37.0244 5.02175 36.8706C2.97455 33.3578 6.08747 27.7214 11.9763 24.278C17.8601 20.8347 24.2942 20.8893 26.3464 24.3971Z" fill="#BBBBBB"/>
<path d="M26.588 24.8788C28.1098 28.4065 25.0167 33.7005 19.3955 36.99C13.7694 40.2796 7.64268 40.3788 5.31789 37.3175C3.79612 33.7898 6.88924 28.4958 12.5153 25.2062C18.1365 21.9167 24.2632 21.8224 26.588 24.8788Z" fill="#EAEAEA"/>
<path d="M17.1293 29.278C18.2347 28.3105 19.3004 27.8292 20.3215 27.8242C21.3922 27.8242 22.0217 28.1368 22.2051 28.7669C22.339 29.2631 22.1754 29.9676 21.7194 30.8607L23.0528 30.8558L22.7405 31.4065L21.3873 31.4115C20.8172 32.2996 20.1034 32.9843 19.231 33.4705C18.3288 33.9816 17.2433 34.2892 15.9842 34.4033L16.4502 33.5846C17.4713 33.4953 18.3288 33.2572 19.0228 32.8652C19.6176 32.5328 20.1282 32.0515 20.5495 31.4164L15.9099 31.4263L14.5764 32.7957C13.476 33.7583 12.4053 34.2346 11.3693 34.2396C10.3879 34.2396 9.80791 33.9419 9.6245 33.3415C9.45101 32.8553 9.57495 32.2202 9.98638 31.4412L8.74219 31.4462L9.05448 30.8954L10.3135 30.8905C10.7894 30.1264 11.4239 29.4963 12.2071 28.9952C13.02 28.4643 14.0015 28.1318 15.1415 27.9929L14.6806 28.8017C13.828 28.9108 13.0795 29.1738 12.44 29.5806C11.9146 29.923 11.4784 30.3546 11.1215 30.8855L15.5381 30.8756L17.1293 29.278ZM21.2088 29.2532C21.0403 28.8513 20.5991 28.6528 19.8754 28.6528C19.0773 28.6528 18.1851 29.1341 17.2135 30.0966L16.4601 30.8756L20.8866 30.8657C21.2336 30.1711 21.3377 29.6402 21.2088 29.2532ZM15.0127 31.4263L10.829 31.4363C10.5366 32.0068 10.4474 32.4534 10.5564 32.7809C10.6803 33.2076 11.1116 33.4209 11.8452 33.4209C12.5937 33.4209 13.4711 32.9347 14.4724 31.9622L15.0127 31.4263Z" fill="#BBBBBB"/>
<path d="M5.02332 8.74908L2.93164 21.6738L4.2723 21.8912L6.36398 8.96646L5.02332 8.74908Z" fill="#F9B94F"/>
<path d="M9.22963 16.0637C9.80701 12.496 8.52474 9.32003 6.3656 8.96994C4.20646 8.61985 1.98807 11.2282 1.41068 14.7959C0.833299 18.3637 2.11556 21.5397 4.27471 21.8898C6.43385 22.2398 8.65224 19.6314 9.22963 16.0637Z" fill="#BBBBBB"/>
<path d="M5.09457 8.7506C7.25579 9.10288 8.53467 12.2783 7.95966 15.8457C7.38466 19.4131 5.16395 22.0229 3.00272 21.6756C0.841493 21.3233 -0.437382 18.1479 0.137623 14.5805C0.717586 11.0081 2.93334 8.39833 5.09457 8.7506Z" fill="url(#paint1_linear_7617_23577)"/>
<path d="M4.71301 9.85149C4.79232 9.86638 4.87162 9.88126 4.94597 9.90607C6.59166 10.3824 7.53348 12.9475 7.06753 15.8203C6.60158 18.6931 4.89641 20.8315 3.18628 20.762C3.10697 20.7571 3.02767 20.7521 2.94836 20.7372C1.15893 20.4495 0.103107 17.7752 0.588882 14.7684C1.07961 11.7617 2.92358 9.56372 4.71301 9.85149Z" fill="#BBBBBB"/>
<path d="M4.9456 9.90789C6.59128 10.3842 7.5331 12.9494 7.06715 15.8221C6.60121 18.6949 4.89603 20.8333 3.18591 20.7639C1.54023 20.2875 0.59844 17.7224 1.06439 14.8496C1.53033 11.9769 3.23547 9.83843 4.9456 9.90789Z" fill="#EAEAEA"/>
<path d="M3.77398 14.4089C3.75416 13.7539 3.888 13.2528 4.18045 12.8956C4.48283 12.5235 4.77032 12.3994 5.03799 12.5135C5.24618 12.6078 5.43952 12.8658 5.61797 13.2776L5.99467 12.8162L6.09382 13.0792L5.71215 13.5455C5.8559 13.9921 5.8906 14.4337 5.80634 14.8703C5.72703 15.3268 5.52378 15.7882 5.20654 16.2496L5.05784 15.8576C5.3156 15.4806 5.47916 15.1184 5.53864 14.7661C5.59317 14.4684 5.57334 14.1558 5.4742 13.8284L4.16064 15.4309L4.25482 16.2794C4.27465 16.9293 4.13584 17.4354 3.84339 17.7927C3.5658 18.1301 3.29813 18.2491 3.04037 18.14C2.82226 18.0606 2.63887 17.8373 2.49016 17.4751L2.13821 17.9068L2.03906 17.6438L2.39598 17.2072C2.2671 16.8252 2.23238 16.4282 2.28195 16.0164C2.33152 15.5848 2.49509 15.1531 2.77268 14.7214L2.92141 15.1084C2.71817 15.4309 2.59423 15.7634 2.55457 16.1008C2.52483 16.3786 2.54963 16.6515 2.62894 16.9244L3.87809 15.4012L3.77398 14.4089ZM4.92399 12.9998C4.73563 12.9452 4.54231 13.0395 4.33908 13.2875C4.11602 13.5604 4.02678 14.007 4.08131 14.6123L4.13583 15.0936L5.38498 13.5654C5.24619 13.2528 5.09253 13.0643 4.92399 12.9998ZM3.91279 15.7485L2.72808 17.1923C2.84209 17.4553 2.97095 17.614 3.1147 17.6686C3.29811 17.748 3.49146 17.6587 3.69965 17.4057C3.91279 17.1477 3.9921 16.7061 3.94253 16.0859L3.91279 15.7485Z" fill="#BBBBBB"/>
<path d="M24.5713 2.87216L31.9395 9.30859L32.6076 8.54229L25.2394 2.10586L24.5713 2.87216Z" fill="#F9B94F"/>
<path d="M31.9193 9.30182C32.9938 8.06932 32.2147 5.62861 30.179 3.85034C28.1433 2.07207 25.6219 1.62964 24.5473 2.86213C23.4727 4.09463 24.2518 6.53532 26.2875 8.31359C28.3233 10.0919 30.8447 10.5343 31.9193 9.30182Z" fill="#BBBBBB"/>
<path d="M25.1947 2.13836C24.119 3.3738 24.8973 5.81491 26.9346 7.59116C28.9719 9.36741 31.49 9.80899 32.5656 8.57852C33.6413 7.34804 32.8631 4.90197 30.8257 3.12572C28.7884 1.34947 26.2703 0.907884 25.1947 2.13836Z" fill="url(#paint2_linear_7617_23577)"/>
<path d="M25.9371 2.59092C25.8975 2.63557 25.8627 2.68519 25.828 2.7348C25.1093 3.79658 25.7884 5.72168 27.4291 7.15062C29.0649 8.57956 31.0675 8.99634 32.0192 8.13798C32.0638 8.09829 32.1085 8.05363 32.1432 8.00898C33.0354 6.98689 32.3662 4.94767 30.6511 3.44927C28.941 1.95583 26.8294 1.56883 25.9371 2.59092Z" fill="#BBBBBB"/>
<path d="M25.828 2.73496C25.1093 3.79674 25.7884 5.72184 27.4291 7.15078C29.0649 8.57972 31.0675 8.99649 32.0192 8.13813C32.738 7.07635 32.0539 5.15125 30.4181 3.72231C28.7774 2.29337 26.7798 1.8766 25.828 2.73496Z" fill="#EAEAEA"/>
<path d="M29.065 5.38734L30.5124 5.66519C30.4281 5.47168 30.3141 5.29803 30.1605 5.15414C29.9771 4.98049 29.7491 4.84653 29.4764 4.75722L29.3773 4.46448C29.7441 4.58356 30.0415 4.75225 30.2745 4.97553C30.5025 5.18887 30.6661 5.43696 30.7751 5.71481L31.1865 5.79419L31.2559 5.99265L30.8495 5.91327C30.9387 6.19608 30.9387 6.40943 30.8495 6.55828C30.7553 6.74186 30.5421 6.80636 30.2249 6.74186C29.8878 6.67736 29.5656 6.45408 29.2633 6.06708L28.9113 5.53619L27.3945 5.24345C27.4937 5.47665 27.6324 5.67015 27.8059 5.81404C28.0092 5.98769 28.2769 6.1167 28.604 6.21097L28.7081 6.50866C28.3016 6.39454 27.9695 6.22585 27.7019 6.00258C27.4441 5.78923 27.2557 5.5213 27.1219 5.19384L26.6807 5.10949L26.6113 4.91103L27.0475 4.99537C26.9534 4.67287 26.9434 4.43471 27.0178 4.2809C27.1169 4.08244 27.3449 4.0229 27.6919 4.0874C28.029 4.1519 28.3462 4.37517 28.6486 4.76218L29.065 5.38734ZM27.3152 4.49921C27.2508 4.61829 27.2508 4.79691 27.3202 5.04499L28.7676 5.3278L28.5693 5.02514C28.3116 4.64806 28.0488 4.43471 27.7861 4.3851C27.5531 4.34044 27.3945 4.38013 27.3152 4.49921ZM29.2087 5.60069L29.3525 5.80907C29.6202 6.19112 29.8779 6.40447 30.1208 6.44912C30.3637 6.49377 30.5174 6.45408 30.5818 6.32012C30.6363 6.22089 30.6363 6.06708 30.5769 5.86365L29.2087 5.60069Z" fill="#BBBBBB"/>
<defs>
<linearGradient id="paint0_linear_7617_23577" x1="5.73472" y1="26.503" x2="26.5135" y2="35.3408" gradientUnits="userSpaceOnUse">
<stop offset="0.00383936" stop-color="#D9D9D9"/>
<stop offset="1" stop-color="#F1F1F1"/>
</linearGradient>
<linearGradient id="paint1_linear_7617_23577" x1="-0.328373" y1="17.5506" x2="8.60889" y2="12.9136" gradientUnits="userSpaceOnUse">
<stop offset="0.00383936" stop-color="#D9D9D9"/>
<stop offset="1" stop-color="#F1F1F1"/>
</linearGradient>
<linearGradient id="paint2_linear_7617_23577" x1="32.6868" y1="4.66239" x2="25.3293" y2="6.25736" gradientUnits="userSpaceOnUse">
<stop offset="0.00383936" stop-color="#D9D9D9"/>
<stop offset="1" stop-color="#F1F1F1"/>
</linearGradient>
</defs>
</svg>
