<svg width="35" height="48" viewBox="0 0 35 48" fill="none" xmlns="http://www.w3.org/2000/svg">
<path d="M28.6813 22.6847L3.35352 37.4785L4.89118 40.1101L30.219 25.3163L28.6813 22.6847Z" fill="#F9B94F"/>
<path d="M22.0389 40.3785C29.033 36.2933 32.6968 29.5485 30.2223 25.3136C27.7478 21.0787 20.0721 20.9573 13.078 25.0425C6.0839 29.1277 2.42004 35.8725 4.89453 40.1074C7.36903 44.3423 15.0448 44.4637 22.0389 40.3785Z" fill="#FFAF45"/>
<path d="M28.7956 22.8359C31.2691 27.0683 27.606 33.8134 20.6118 37.9021C13.6176 41.9859 5.93932 41.867 3.46582 37.6345C0.992322 33.4021 4.65548 26.657 11.6497 22.5683C18.6439 18.4796 26.3172 18.5985 28.7956 22.8359Z" fill="url(#paint0_linear_1370_1788)"/>
<path d="M26.3464 23.7398C26.4356 23.8934 26.5198 24.057 26.5892 24.2205C28.111 27.7443 25.0179 33.0323 19.3968 36.3181C13.7707 39.604 7.64394 39.7031 5.31915 36.6452C5.2101 36.5015 5.11097 36.3528 5.02175 36.1992C2.97455 32.6903 6.08747 27.0603 11.9763 23.6209C17.8601 20.1814 24.2942 20.2359 26.3464 23.7398Z" fill="#FFAF45"/>
<path d="M26.589 24.22C28.1108 27.7437 25.0176 33.0318 19.3965 36.3176C13.7704 39.6034 7.64366 39.7026 5.31887 36.6447C3.7971 33.121 6.89022 27.8329 12.5163 24.5471C18.1374 21.2613 24.2642 21.1671 26.589 24.22Z" fill="#FFFA57"/>
<path d="M17.1302 28.6142C18.2356 27.6478 19.3014 27.1671 20.3225 27.1621C21.3932 27.1621 22.0227 27.4743 22.2061 28.1038C22.3399 28.5994 22.1764 29.3031 21.7203 30.1952L23.0538 30.1902L22.7415 30.7403L21.3882 30.7453C20.8182 31.6324 20.1044 32.3163 19.232 32.802C18.3298 33.3125 17.2443 33.6198 15.9852 33.7338L16.4512 32.916C17.4723 32.8268 18.3298 32.5889 19.0238 32.1974C19.6186 31.8654 20.1292 31.3846 20.5505 30.7503L15.9108 30.7602L14.5774 32.128C13.477 33.0895 12.4063 33.5653 11.3703 33.5702C10.3889 33.5702 9.80888 33.2729 9.62548 32.6732C9.45199 32.1875 9.57593 31.5531 9.98735 30.775L8.74316 30.78L9.05545 30.2299L10.3145 30.2249C10.7904 29.4617 11.4248 28.8323 12.208 28.3317C13.021 27.8014 14.0024 27.4694 15.1425 27.3306L14.6815 28.1384C13.8289 28.2475 13.0804 28.5101 12.441 28.9165C11.9156 29.2585 11.4794 29.6897 11.1225 30.22L15.5391 30.2101L17.1302 28.6142ZM21.2098 28.5894C21.0412 28.188 20.6001 27.9898 19.8764 27.9898C19.0783 27.9898 18.1861 28.4705 17.2145 29.432L16.4611 30.2101L20.8876 30.2001C21.2346 29.5063 21.3386 28.976 21.2098 28.5894ZM15.0136 30.7602L10.83 30.7701C10.5375 31.34 10.4483 31.7861 10.5574 32.1132C10.6813 32.5394 11.1126 32.7525 11.8462 32.7525C12.5947 32.7525 13.4721 32.2668 14.4733 31.2954L15.0136 30.7602Z" fill="#FFAF45"/>
<path d="M5.02332 8.11132L2.93164 21.0215L4.2723 21.2386L6.36398 8.32845L5.02332 8.11132Z" fill="#F9B94F"/>
<path d="M9.22865 15.4153C9.80604 11.8516 8.52377 8.6792 6.36462 8.3295C4.20548 7.97981 1.98709 10.5852 1.40971 14.1489C0.832322 17.7126 2.11459 20.885 4.27373 21.2347C6.43287 21.5844 8.65126 18.979 9.22865 15.4153Z" fill="#FFAF45"/>
<path d="M5.09457 8.1119C7.25579 8.46377 8.53467 11.6356 7.95966 15.199C7.38466 18.7623 5.16395 21.3692 3.00272 21.0223C0.841493 20.6704 -0.437382 17.4986 0.137623 13.9352C0.717586 10.3669 2.93334 7.76002 5.09457 8.1119Z" fill="url(#paint1_linear_1370_1788)"/>
<path d="M4.71203 9.21279C4.79134 9.22766 4.87064 9.24253 4.94499 9.26731C6.59068 9.74309 7.5325 12.3053 7.06655 15.1749C6.60061 18.0444 4.89543 20.1804 3.18531 20.111C3.106 20.1061 3.0267 20.1011 2.94739 20.0863C1.15795 19.7988 0.102131 17.1275 0.587905 14.1242C1.07864 11.1209 2.9226 8.92534 4.71203 9.21279Z" fill="#FFAF45"/>
<path d="M4.94657 9.26727C6.59225 9.74304 7.53407 12.3053 7.06813 15.1748C6.60218 18.0443 4.89701 20.1804 3.18689 20.111C1.54121 19.6352 0.599417 17.073 1.06536 14.2034C1.53131 11.3339 3.23645 9.19788 4.94657 9.26727Z" fill="#FFFA57"/>
<path d="M3.77496 13.7641C3.75513 13.1099 3.88897 12.6093 4.18143 12.2525C4.4838 11.8808 4.77129 11.7569 5.03897 11.8709C5.24716 11.9651 5.4405 12.2228 5.61895 12.6341L5.99565 12.1732L6.09479 12.4359L5.71313 12.9018C5.85688 13.3478 5.89158 13.7889 5.80731 14.225C5.728 14.681 5.52476 15.1419 5.20752 15.6028L5.05881 15.2112C5.31657 14.8346 5.48014 14.4728 5.53962 14.1209C5.59415 13.8236 5.57432 13.5113 5.47518 13.1842L4.16161 14.785L4.2558 15.6325C4.27562 16.2817 4.13682 16.7873 3.84436 17.1441C3.56678 17.4811 3.29911 17.6 3.04135 17.491C2.82324 17.4117 2.63984 17.1887 2.49114 16.8269L2.13918 17.2581L2.04004 16.9954L2.39695 16.5593C2.26807 16.1777 2.23335 15.7812 2.28292 15.3698C2.33249 14.9387 2.49607 14.5075 2.77365 14.0763L2.92238 14.4629C2.71915 14.785 2.5952 15.1171 2.55555 15.4541C2.52581 15.7316 2.5506 16.0042 2.62991 16.2768L3.87907 14.7553L3.77496 13.7641ZM4.92497 12.3566C4.7366 12.3021 4.54329 12.3962 4.34005 12.644C4.11699 12.9166 4.02776 13.3627 4.08229 13.9673L4.1368 14.448L5.38596 12.9216C5.24716 12.6094 5.0935 12.421 4.92497 12.3566ZM3.91377 15.1022L2.72906 16.5444C2.84307 16.8071 2.97193 16.9657 3.11568 17.0202C3.29909 17.0995 3.49243 17.0103 3.70062 16.7575C3.91377 16.4998 3.99308 16.0587 3.94351 15.4392L3.91377 15.1022Z" fill="#FFAF45"/>
<path d="M24.5722 2.2388L31.9404 8.66797L32.6086 7.90253L25.2404 1.47336L24.5722 2.2388Z" fill="#F9B94F"/>
<path d="M31.9202 8.66231C32.9948 7.4312 32.2157 4.99324 30.18 3.21697C28.1443 1.44071 25.6228 0.998783 24.5483 2.22989C23.4737 3.46099 24.2528 5.89893 26.2885 7.67519C28.3242 9.45146 30.8456 9.89341 31.9202 8.66231Z" fill="#FFAF45"/>
<path d="M25.1956 1.50671C24.12 2.74076 24.8982 5.17912 26.9355 6.95336C28.9728 8.72761 31.491 9.1687 32.5666 7.93961C33.6423 6.71052 32.864 4.26721 30.8267 2.49296C28.7894 0.718713 26.2713 0.277626 25.1956 1.50671Z" fill="url(#paint2_linear_1370_1788)"/>
<path d="M25.9391 1.95746C25.8994 2.00206 25.8647 2.05162 25.83 2.10118C25.1112 3.16177 25.7904 5.0847 27.4311 6.51202C29.0669 7.93935 31.0695 8.35565 32.0212 7.49827C32.0658 7.45862 32.1104 7.41401 32.1451 7.36941C33.0374 6.34847 32.3682 4.31156 30.6531 2.81485C28.943 1.32309 26.8313 0.936522 25.9391 1.95746Z" fill="#FFAF45"/>
<path d="M25.83 2.10164C25.1112 3.16223 25.7904 5.08516 27.4311 6.51248C29.0669 7.93981 31.0694 8.35611 32.0212 7.49873C32.7399 6.43814 32.0559 4.51521 30.4201 3.08789C28.7794 1.66056 26.7817 1.24426 25.83 2.10164Z" fill="#FFFA57"/>
<path d="M29.067 4.75108L30.5144 5.02861C30.4301 4.83533 30.3161 4.66187 30.1624 4.51815C29.979 4.34469 29.751 4.21088 29.4784 4.12167L29.3792 3.82926C29.7461 3.94821 30.0435 4.11671 30.2764 4.33973C30.5045 4.55284 30.668 4.80064 30.7771 5.07818L31.1885 5.15747L31.2579 5.35571L30.8514 5.27641C30.9407 5.55891 30.9407 5.77202 30.8514 5.9207C30.7573 6.10407 30.5441 6.1685 30.2269 6.10407C29.8898 6.03964 29.5676 5.81662 29.2652 5.43005L28.9133 4.89976L27.3965 4.60735C27.4956 4.84029 27.6344 5.03357 27.8079 5.1773C28.0111 5.35076 28.2788 5.47961 28.606 5.57378L28.71 5.87114C28.3036 5.75715 27.9715 5.58864 27.7038 5.36562C27.446 5.15251 27.2577 4.88489 27.1239 4.5578L26.6827 4.47354L26.6133 4.2753L27.0495 4.35955C26.9553 4.03741 26.9454 3.79953 27.0198 3.64589C27.1189 3.44765 27.3469 3.38818 27.6939 3.45261C28.031 3.51703 28.3482 3.74005 28.6506 4.12662L29.067 4.75108ZM27.3172 3.86395C27.2527 3.9829 27.2527 4.16131 27.3221 4.40911L28.7695 4.69161L28.5713 4.38929C28.3135 4.01264 28.0508 3.79953 27.7881 3.74997C27.5551 3.70536 27.3965 3.74501 27.3172 3.86395ZM29.2107 4.96419L29.3545 5.17234C29.6221 5.55395 29.8799 5.76706 30.1228 5.81166C30.3657 5.85627 30.5193 5.81662 30.5838 5.68281C30.6383 5.58369 30.6383 5.43005 30.5788 5.22685L29.2107 4.96419Z" fill="#FFAF45"/>
<defs>
<linearGradient id="paint0_linear_1370_1788" x1="5.73472" y1="25.8436" x2="26.5063" y2="34.6883" gradientUnits="userSpaceOnUse">
<stop offset="0.00383936" stop-color="#FFDF3D"/>
<stop offset="1" stop-color="#FFF3CC"/>
</linearGradient>
<linearGradient id="paint1_linear_1370_1788" x1="-0.328373" y1="16.902" x2="8.60461" y2="12.262" gradientUnits="userSpaceOnUse">
<stop offset="0.00383936" stop-color="#FFDF3D"/>
<stop offset="1" stop-color="#FFF3CC"/>
</linearGradient>
<linearGradient id="paint2_linear_1370_1788" x1="32.6878" y1="4.0279" x2="25.331" y2="5.6245" gradientUnits="userSpaceOnUse">
<stop offset="0.00383936" stop-color="#FFDF3D"/>
<stop offset="1" stop-color="#FFF3CC"/>
</linearGradient>
</defs>
</svg>
