<svg width="143" height="42" viewBox="0 0 143 42" fill="none" xmlns="http://www.w3.org/2000/svg">
<path d="M134.947 41.6878H8.45342C4.19732 41.6878 0.712891 38.1994 0.712891 33.9385V11.8694C0.712891 7.60847 4.19732 4.12012 8.45342 4.12012H134.947C139.203 4.12012 142.687 7.60847 142.687 11.8694V33.9385C142.687 38.1994 139.203 41.6878 134.947 41.6878Z" fill="#EB9B21"/>
<path d="M134.947 37.929H8.45342C4.19732 37.929 0.712891 34.4406 0.712891 30.1797V8.11059C0.712891 3.84968 4.19732 0.361328 8.45342 0.361328H134.947C139.203 0.361328 142.687 3.84968 142.687 8.11059V30.1797C142.687 34.4406 139.203 37.929 134.947 37.929Z" fill="#F5D85A"/>
<path d="M36.44 12.994V14.65H51.614V12.994H45.008C44.756 11.986 44.486 11.068 44.234 10.276L42.254 10.6C42.56 11.338 42.848 12.13 43.118 12.994H36.44ZM35.828 24.244V25.9H52.226V24.244H46.646C47.672 21.832 48.536 19.06 49.256 15.946L47.438 15.478C46.646 18.97 45.71 21.904 44.666 24.244H35.828ZM40.616 15.478L38.816 16.072C39.644 18.592 40.328 21.202 40.868 23.92L42.704 23.452C42.092 20.446 41.408 17.782 40.616 15.478ZM56.258 15.892H60.038V17.98H56.258V15.892ZM60.038 14.362H56.258V12.382H60.038V14.362ZM54.44 26.35C56.78 25.774 58.886 25.108 60.722 24.334C61.01 24.91 61.28 25.45 61.532 25.99L62.864 25.054C62.27 23.794 61.424 22.3 60.308 20.59L59.012 21.418C59.318 21.922 59.624 22.408 59.93 22.912C58.85 23.344 57.626 23.758 56.258 24.154V19.564H61.622V10.852H54.584V23.83C54.584 24.244 54.332 24.532 53.846 24.712L54.44 26.35ZM67.76 24.388C69.02 24.388 69.668 23.74 69.668 22.444V10.87H63.494V26.8H65.204V12.472H67.958V22.066C67.958 22.534 67.706 22.786 67.202 22.786L65.87 22.732L66.32 24.388H67.76ZM79.406 10.852V12.472H82.916C82.844 13.012 82.754 13.534 82.646 14.056H80.072V22.948H81.746V15.64H85.976V22.768H87.632V14.056H84.32C84.428 13.552 84.518 13.012 84.59 12.472H88.046V10.852H79.406ZM85.346 22.696L84.194 23.812C85.454 24.928 86.444 25.972 87.146 26.944L88.37 25.72C87.542 24.712 86.534 23.704 85.346 22.696ZM83.024 16.576V19.708C82.97 21.202 82.682 22.408 82.178 23.326C81.638 24.208 80.648 24.928 79.208 25.504L80.108 26.926C81.656 26.314 82.79 25.486 83.474 24.406C84.176 23.218 84.554 21.652 84.626 19.708V16.576H83.024ZM75.122 10.33C74.024 12.274 72.818 13.984 71.522 15.424L72.494 16.792C73.826 15.28 74.96 13.66 75.932 11.968C76.688 12.886 77.642 14.236 78.758 16L79.892 14.794C78.776 13.246 77.624 11.752 76.4 10.33H75.122ZM72.566 18.124V19.726H77.354C76.742 20.878 76.148 21.868 75.536 22.696C75.032 22.264 74.51 21.832 73.97 21.4L72.836 22.516C74.708 24.046 76.184 25.468 77.228 26.8L78.452 25.576C77.912 24.964 77.318 24.334 76.67 23.722C77.606 22.498 78.452 21.112 79.19 19.564V18.124H72.566ZM75.86 14.308L74.636 15.064C75.356 16.09 75.932 17.026 76.364 17.872L77.588 17.008C77.192 16.252 76.616 15.352 75.86 14.308ZM98.918 21.634C98.432 21.76 97.928 21.886 97.406 22.012V12.436H98.504V13.462H99.224C99.458 16.378 100.214 19.078 101.474 21.562C100.556 23.074 99.404 24.388 98 25.486L99.17 26.818C100.43 25.828 101.51 24.64 102.446 23.254C103.22 24.478 104.156 25.666 105.272 26.818L106.424 25.504C105.218 24.352 104.192 23.074 103.364 21.67C104.534 19.366 105.308 16.612 105.704 13.39V11.824H98.648V10.834H89.972V12.436H91.268V23.164L89.756 23.344L90.17 25.018C92.096 24.73 93.95 24.406 95.75 24.046V26.818H97.406V23.704L98.918 23.344V21.634ZM100.79 13.462H104.102C103.796 15.838 103.22 17.962 102.392 19.834C101.528 17.908 101.006 15.784 100.79 13.462ZM95.75 22.39C94.832 22.57 93.896 22.75 92.942 22.912V20.266H95.75V22.39ZM92.942 18.736V16.36H95.75V18.736H92.942ZM92.942 14.812V12.436H95.75V14.812H92.942Z" fill="white"/>
</svg>
