<svg width="100" height="100" viewBox="0 0 100 100" fill="none" xmlns="http://www.w3.org/2000/svg">
<path d="M37.6532 86.2852C37.1034 86.5601 36.5537 86.835 35.729 86.835C37.1034 89.034 39.8523 90.4085 42.3262 89.5838L86.3078 76.3894C89.3315 75.5647 91.2557 72.2661 90.1562 68.9675L89.0566 64.2944C88.7818 64.5693 88.5069 64.5693 88.232 64.8442L37.6532 86.2852ZM83.2841 43.4032L83.0092 42.0288C82.1845 39.2799 79.4357 37.3557 76.6868 37.6306C76.6868 37.9055 76.9617 38.1804 76.9617 38.4553C78.0612 41.2041 80.5352 42.8534 83.2841 43.4032Z" fill="#F0F3FF"/>
<path d="M92.6294 48.3499L88.5062 39.5535C84.6578 40.928 80.5345 39.2787 78.8852 35.7052C77.2359 31.8568 78.3354 27.4586 81.634 25.5344L76.4112 15.0888C74.487 10.9655 69.5391 9.31623 65.6907 11.2404L10.164 38.454C6.04073 40.3782 4.39142 45.3261 6.31562 49.1745L11.2635 59.3452C15.1119 57.9708 19.5101 59.6201 21.1594 63.4685C22.8087 67.3169 21.7092 71.7151 18.4105 73.6392L22.5338 82.4356C24.458 86.5588 29.4059 88.2081 33.2543 86.2839L88.781 59.0704C92.9043 56.8713 94.5536 52.1982 92.6294 48.3499ZM32.1548 37.6294L47.8232 29.9326C49.4725 29.1079 51.6716 29.6577 52.4963 31.5819C53.3209 33.2312 52.7711 35.4303 50.8469 36.2549L35.1785 43.9517C34.3539 44.5015 33.2543 44.5015 32.4297 44.2266C31.605 43.9517 30.7804 43.4019 30.5055 42.5773C29.6808 40.3782 30.5055 38.454 32.1548 37.6294ZM22.2589 42.3024C21.984 42.3024 21.7092 42.5773 21.4343 42.5773C20.6096 42.5773 20.3347 42.3024 19.785 41.4777L18.9603 39.8284C18.6854 39.0038 18.9603 37.9042 19.785 37.6294C20.6096 37.3545 21.7092 37.6294 21.984 38.454L22.8087 40.1033C23.6334 40.928 23.0836 42.0275 22.2589 42.3024ZM26.1073 50.2741C25.8324 50.2741 25.5575 50.5489 25.2827 50.5489C24.458 50.5489 24.1831 50.274 23.6334 49.4494L22.8087 47.8001C22.5338 46.9754 22.8087 45.8759 23.6334 45.601C24.458 45.3261 25.5575 45.601 25.8324 46.4257L26.6571 48.075C27.4817 48.8996 26.932 49.7243 26.1073 50.2741ZM29.6808 57.9708C29.4059 57.9708 29.4059 58.2457 28.8562 58.2457C28.0315 58.2457 27.7566 57.9708 27.2069 57.1462L26.3822 55.4969C26.1073 54.6722 26.3822 53.5727 27.2069 53.2978C28.0315 53.0229 29.1311 53.2978 29.4059 54.1224L30.2306 55.7717C31.0552 56.5964 30.7804 57.4211 29.6808 57.9708ZM33.5292 65.3927C33.2543 65.6676 33.2543 65.6676 32.7046 65.6676C31.8799 65.6676 31.605 65.3927 31.0552 64.5681L30.2306 62.9187C29.9557 62.0941 30.2306 60.9946 31.0552 60.7197C31.8799 60.4448 32.9794 60.7197 33.2543 61.5443L34.079 63.1936C34.9036 64.0183 34.6287 65.1178 33.5292 65.3927ZM37.3776 73.0895C37.1027 73.3644 37.1027 73.3644 36.5529 73.3644C35.7283 73.3644 35.4534 73.0895 34.9036 72.2648L34.079 70.6155C33.8041 69.7909 34.079 68.6913 34.9036 68.4164C35.7283 68.1416 36.8278 68.4164 37.1027 69.2411L37.9274 70.8904C38.752 71.7151 38.4771 72.8146 37.3776 73.0895ZM69.5391 42.5773L41.5009 56.5964C39.8516 57.4211 37.6525 56.8713 36.8278 54.9471C36.0032 53.2978 36.5529 51.0987 38.4771 50.2741L66.5154 36.2549C68.1647 35.4303 70.3638 35.98 71.1884 37.9042C72.0131 39.5535 71.1884 41.7526 69.5391 42.5773Z" fill="#F0F3FF"/>
</svg>
