<svg width="240" height="319" viewBox="0 0 240 319" fill="none" xmlns="http://www.w3.org/2000/svg">
<g clip-path="url(#clip0_1148_8934)">
<path d="M215.677 318.824H24.3234C10.9465 318.824 0 307.865 0 294.469V24.3509C0 10.9589 10.9465 0 24.3234 0H215.673C229.053 0 239.996 10.9589 239.996 24.3509V294.469C240 307.865 229.053 318.824 215.677 318.824Z" fill="url(#paint0_linear_1148_8934)"/>
<path d="M194.396 283.553H45.6036C31.9562 283.553 20.7949 272.936 20.7949 259.958V43.5718C20.7949 30.594 31.9602 19.9775 45.6036 19.9775H73.7217C78.7375 19.9775 83.626 21.4708 87.7071 24.2464L97.4126 30.8528C110.988 40.0954 129.178 40.3184 143.001 31.4143L155.701 23.231C158.991 21.1125 162.877 19.9775 166.851 19.9775H194.396C208.043 19.9775 219.205 30.594 219.205 43.5718V259.958C219.209 272.936 208.043 283.553 194.396 283.553Z" fill="#FCE9C3"/>
<path d="M191.516 278.448H48.4838C35.3655 278.448 24.6338 268.242 24.6338 255.766V47.7615C24.6338 35.2854 35.3655 25.0791 48.4838 25.0791H75.512C80.333 25.0791 85.0346 26.5127 88.9525 29.1847L98.2801 35.5362C111.331 44.4204 128.817 44.6355 142.102 36.0738L154.313 28.2051C157.476 26.1662 161.211 25.0791 165.029 25.0791H191.509C204.627 25.0791 215.359 35.2854 215.359 47.7615V255.766C215.367 268.242 204.635 278.448 191.516 278.448Z" stroke="#E83828" stroke-width="3.52941" stroke-miterlimit="10" stroke-dasharray="3.53 3.53"/>
<path d="M218.413 318.823H21.5868C9.71344 318.823 0 309.098 0 297.212V215.856C0 215.526 0.00795532 215.199 0.023866 214.873C0.548917 203.296 11.0261 195.929 21.3521 197.176C25.6957 192.692 31.7696 189.896 38.5037 189.896C42.8036 189.896 46.8369 191.039 50.3214 193.03L87.9261 212.109C106.975 226.258 133.033 226.258 152.082 212.109L188.346 192.505C191.6 190.84 195.287 189.896 199.193 189.896C206.094 189.896 212.312 192.831 216.671 197.518C227.594 194.99 239.427 202.552 239.984 214.873C240 215.199 240.008 215.53 240.008 215.856V297.212C240 309.098 230.287 318.823 218.413 318.823Z" fill="url(#paint1_linear_1148_8934)"/>
<path d="M183.947 285.688H57.4534C53.1973 285.688 49.7129 282.199 49.7129 277.939V255.869C49.7129 251.608 53.1973 248.12 57.4534 248.12H183.947C188.203 248.12 191.687 251.608 191.687 255.869V277.939C191.687 282.199 188.203 285.688 183.947 285.688Z" fill="#EB9B21"/>
<path d="M183.947 281.929H57.4534C53.1973 281.929 49.7129 278.441 49.7129 274.18V252.111C49.7129 247.85 53.1973 244.361 57.4534 244.361H183.947C188.203 244.361 191.687 247.85 191.687 252.111V274.18C191.687 278.441 188.203 281.929 183.947 281.929Z" fill="#F5D85A"/>
<path d="M85.44 256.994V258.65H100.614V256.994H94.008C93.756 255.986 93.486 255.068 93.234 254.276L91.254 254.6C91.56 255.338 91.848 256.13 92.118 256.994H85.44ZM84.828 268.244V269.9H101.226V268.244H95.646C96.672 265.832 97.536 263.06 98.256 259.946L96.438 259.478C95.646 262.97 94.71 265.904 93.666 268.244H84.828ZM89.616 259.478L87.816 260.072C88.644 262.592 89.328 265.202 89.868 267.92L91.704 267.452C91.092 264.446 90.408 261.782 89.616 259.478ZM105.258 259.892H109.038V261.98H105.258V259.892ZM109.038 258.362H105.258V256.382H109.038V258.362ZM103.44 270.35C105.78 269.774 107.886 269.108 109.722 268.334C110.01 268.91 110.28 269.45 110.532 269.99L111.864 269.054C111.27 267.794 110.424 266.3 109.308 264.59L108.012 265.418C108.318 265.922 108.624 266.408 108.93 266.912C107.85 267.344 106.626 267.758 105.258 268.154V263.564H110.622V254.852H103.584V267.83C103.584 268.244 103.332 268.532 102.846 268.712L103.44 270.35ZM116.76 268.388C118.02 268.388 118.668 267.74 118.668 266.444V254.87H112.494V270.8H114.204V256.472H116.958V266.066C116.958 266.534 116.706 266.786 116.202 266.786L114.87 266.732L115.32 268.388H116.76ZM128.406 254.852V256.472H131.916C131.844 257.012 131.754 257.534 131.646 258.056H129.072V266.948H130.746V259.64H134.976V266.768H136.632V258.056H133.32C133.428 257.552 133.518 257.012 133.59 256.472H137.046V254.852H128.406ZM134.346 266.696L133.194 267.812C134.454 268.928 135.444 269.972 136.146 270.944L137.37 269.72C136.542 268.712 135.534 267.704 134.346 266.696ZM132.024 260.576V263.708C131.97 265.202 131.682 266.408 131.178 267.326C130.638 268.208 129.648 268.928 128.208 269.504L129.108 270.926C130.656 270.314 131.79 269.486 132.474 268.406C133.176 267.218 133.554 265.652 133.626 263.708V260.576H132.024ZM124.122 254.33C123.024 256.274 121.818 257.984 120.522 259.424L121.494 260.792C122.826 259.28 123.96 257.66 124.932 255.968C125.688 256.886 126.642 258.236 127.758 260L128.892 258.794C127.776 257.246 126.624 255.752 125.4 254.33H124.122ZM121.566 262.124V263.726H126.354C125.742 264.878 125.148 265.868 124.536 266.696C124.032 266.264 123.51 265.832 122.97 265.4L121.836 266.516C123.708 268.046 125.184 269.468 126.228 270.8L127.452 269.576C126.912 268.964 126.318 268.334 125.67 267.722C126.606 266.498 127.452 265.112 128.19 263.564V262.124H121.566ZM124.86 258.308L123.636 259.064C124.356 260.09 124.932 261.026 125.364 261.872L126.588 261.008C126.192 260.252 125.616 259.352 124.86 258.308ZM147.918 265.634C147.432 265.76 146.928 265.886 146.406 266.012V256.436H147.504V257.462H148.224C148.458 260.378 149.214 263.078 150.474 265.562C149.556 267.074 148.404 268.388 147 269.486L148.17 270.818C149.43 269.828 150.51 268.64 151.446 267.254C152.22 268.478 153.156 269.666 154.272 270.818L155.424 269.504C154.218 268.352 153.192 267.074 152.364 265.67C153.534 263.366 154.308 260.612 154.704 257.39V255.824H147.648V254.834H138.972V256.436H140.268V267.164L138.756 267.344L139.17 269.018C141.096 268.73 142.95 268.406 144.75 268.046V270.818H146.406V267.704L147.918 267.344V265.634ZM149.79 257.462H153.102C152.796 259.838 152.22 261.962 151.392 263.834C150.528 261.908 150.006 259.784 149.79 257.462ZM144.75 266.39C143.832 266.57 142.896 266.75 141.942 266.912V264.266H144.75V266.39ZM141.942 262.736V260.36H144.75V262.736H141.942ZM141.942 258.812V256.436H144.75V258.812H141.942Z" fill="white"/>
</g>
<defs>
<linearGradient id="paint0_linear_1148_8934" x1="120.001" y1="318.823" x2="120.001" y2="0" gradientUnits="userSpaceOnUse">
<stop offset="0.4919" stop-color="#DB0927"/>
<stop offset="1" stop-color="#EE7D52"/>
</linearGradient>
<linearGradient id="paint1_linear_1148_8934" x1="120.001" y1="318.822" x2="120.001" y2="189.895" gradientUnits="userSpaceOnUse">
<stop stop-color="#DB0927"/>
<stop offset="1" stop-color="#E83828"/>
</linearGradient>
<clipPath id="clip0_1148_8934">
<rect width="240" height="318.824" fill="white"/>
</clipPath>
</defs>
</svg>
